<svg width="655" height="412" fill="none" xmlns="http://www.w3.org/2000/svg"><path d="M180.522 102.08H55.849V16.785h124.673v85.295zm-123.689-.985h122.704V17.77H56.833v83.325z" fill="#EBEBEB"/><path d="M65.605 22.279a2.48 2.48 0 1 1-4.962 0 2.48 2.48 0 0 1 4.962 0z" fill="#A6A6A6"/><path d="M75.735 22.279a2.48 2.48 0 1 1-4.962 0 2.48 2.48 0 0 1 4.962 0z" fill="#EBEBEB"/><path d="M85.865 22.279a2.48 2.48 0 1 1-4.961 0 2.48 2.48 0 0 1 4.961 0z" fill="gold"/><path d="M180.03 26.65H56.341v.984H180.03v-.984zM641.046 163.038l5.799-9.343-2.865-1.772a2.576 2.576 0 0 1-1.211-2.451c0-.551.059-1.103 0-1.644a2.61 2.61 0 0 1 1.359-2.373l2.953-1.595-5.198-9.687-2.953 1.585a2.619 2.619 0 0 1-2.727-.177 15.7 15.7 0 0 0-1.398-.866 2.62 2.62 0 0 1-1.378-2.373l.108-3.357-10.987-.344-.108 3.376a2.61 2.61 0 0 1-1.526 2.274l-.729.365-.699.403a2.629 2.629 0 0 1-2.726 0l-2.855-1.742-5.799 9.342 2.865 1.782a2.603 2.603 0 0 1 1.211 2.461c-.03.545-.03 1.09 0 1.635a2.602 2.602 0 0 1-1.369 2.372l-2.953 1.595 5.198 9.687 2.953-1.585a2.598 2.598 0 0 1 2.727.168 15.7 15.7 0 0 0 1.398.866 2.611 2.611 0 0 1 1.378 2.373l-.098 3.366 10.987.345.108-3.377a2.6 2.6 0 0 1 1.526-2.264l.728-.364.699-.404a2.634 2.634 0 0 1 2.747 0l2.835 1.723zm-9.303-6.891a9.006 9.006 0 0 1-12.872-5.313 9.003 9.003 0 0 1 2.892-9.582 9.006 9.006 0 0 1 13.662 2.697 9.01 9.01 0 0 1-3.682 12.158v.04zM583.74 226.841l-3.849-6.665-2.038 1.182a1.844 1.844 0 0 1-1.969-.069 16.853 16.853 0 0 0-.984-.581 1.824 1.824 0 0 1-.719-.675 1.825 1.825 0 0 1-.266-.949v-2.353h-7.698v2.353a1.81 1.81 0 0 1-.985 1.624c-.338.176-.666.37-.984.581a1.846 1.846 0 0 1-1.92.069l-2.047-1.182-3.889 6.665 2.057 1.182a1.856 1.856 0 0 1 .896 1.703V230.858a1.834 1.834 0 0 1-.896 1.693l-2.057 1.182 3.849 6.664 2.048-1.181a1.845 1.845 0 0 1 1.92.069c.316.212.645.406.984.581a1.824 1.824 0 0 1 .984 1.624v2.363h7.699v-2.363a1.835 1.835 0 0 1 .984-1.624c.341-.173.669-.367.985-.581a1.838 1.838 0 0 1 1.969-.069l2.048 1.181 3.849-6.664-2.048-1.182a1.84 1.84 0 0 1-.896-1.693v-1.142a1.85 1.85 0 0 1 .896-1.703l2.077-1.172zm-7.363 3.456a6.308 6.308 0 0 1-3.903 5.823 6.316 6.316 0 0 1-6.874-1.374 6.318 6.318 0 0 1-1.363-6.876 6.313 6.313 0 0 1 5.829-3.894 6.31 6.31 0 0 1 6.311 6.272v.049zM581.683 53.339a29.995 29.995 0 0 0-21.211 51.207 30.002 30.002 0 0 0 32.69 6.503 30 30 0 0 0 18.518-27.714 29.999 29.999 0 0 0-29.997-29.996zm0 43.996a14.006 14.006 0 0 1-12.937-8.658 14.009 14.009 0 1 1 26.956-5.342 13.995 13.995 0 0 1-4.107 9.906 14 14 0 0 1-9.912 4.094z" fill="#EBEBEB"/><path d="M587.452 54.579h-11.538l.64-8.171h10.258l.64 8.171zM565.498 58.468l-8.161 8.151-5.316-6.222 7.246-7.255 6.231 5.326zM552.72 76.74v11.537l-8.171-.64V77.38l8.171-.64zM556.608 98.703l8.152 8.151-6.222 5.326-7.256-7.255 5.326-6.222zM574.88 111.471h11.538l-.64 8.172H575.52l-.64-8.172zM596.834 107.593l8.161-8.162 5.326 6.222-7.256 7.256-6.231-5.316zM609.612 89.311V77.773l8.171.64v10.268l-8.171.63zM605.733 67.357l-8.161-8.16 6.222-5.317 7.256 7.256-5.317 6.221zM639.865 250.685l-12.916.276-6.557.108c-2.195.049-4.4 0-6.596.059h-.433v-.443l-.059-11.046v-.492h.492l13.035.059c4.351 0 8.693.108 13.034.158h.276v.275c0 1.871-.079 3.731-.128 5.572l-.148 5.474zm0 0-.138-5.562c-.049-1.831-.108-3.643-.128-5.454l.266.275c-4.341.05-8.683.158-13.034.158l-13.035.059.493-.492v11.016l-.443-.433c2.146 0 4.292 0 6.448.049l6.409.167 13.162.217zM625.324 264.576l-12.916.276-6.566.108c-2.186 0-4.391 0-6.586.059h-.433v-11.952h.492l13.034.069c4.342 0 8.693.109 13.034.158h.276v.266c0 1.87-.079 3.731-.128 5.572l-.207 5.444zm0 0-.137-5.562c-.05-1.831-.109-3.643-.128-5.454l.265.275c-4.341.05-8.693.158-13.034.158l-13.034.059.492-.492v11.016l-.443-.433c2.146 0 4.292 0 6.448.049l6.468.118 13.103.266zM654.406 264.576l-12.917.276-6.556.108c-2.196 0-4.401 0-6.596.059h-.433v-.443l-.059-11.016v-.493h.492l13.034.069c4.352 0 8.693.109 13.035.158h.275v.266c0 1.87-.088 3.731-.128 5.572l-.147 5.444zm0 0-.138-5.562c0-1.831-.108-3.643-.128-5.454l.266.275c-4.342.05-8.683.158-13.035.158l-13.034.059.492-.492v11.016l-.443-.433c2.156 0 4.292 0 6.448.049l6.478.118 13.094.266zM268.149 119.603l-12.916.276-6.556.108h-7.029v-.443l-.059-11.016v-.492h.492l13.034.059c4.351 0 8.693.108 13.034.157h.276v.266c0 1.871-.089 3.721-.138 5.562l-.138 5.523zm0 0-.137-5.572c0-1.831-.109-3.642-.128-5.444l.265.266c-4.341 0-8.683.157-13.034.157l-13.034.069.492-.492-.049 11.016-.443-.443c2.146 0 4.292 0 6.448.059l6.478.108 13.142.276zM253.589 133.494l-12.916.276-6.566.108c-2.186 0-4.391 0-6.586.049h-.434v-.443l-.078-10.996v-.493h.492l13.034.059c4.342 0 8.693.109 13.035.158h.275v.276c0 1.87-.079 3.721-.128 5.562l-.128 5.444zm0 0-.138-5.572c-.049-1.831-.108-3.643-.128-5.444l.266.266c-4.341.049-8.693.157-13.034.157l-13.034.069.492-.492-.02 11.016-.443-.443c2.146 0 4.292 0 6.448.059l6.468.108 13.123.276zM282.69 133.494l-12.916.276-6.557.108c-2.195 0-4.391 0-6.596.049h-.433v-.443l-.059-10.996v-.493h.492l13.035.059c4.351 0 8.693.109 13.034.158h.276v.276c0 1.87-.089 3.721-.128 5.562l-.148 5.444zm0 0-.138-5.572c0-1.831-.108-3.643-.128-5.444l.266.266c-4.341.049-8.683.157-13.034.157l-13.035.069.492-.492-.049 11.016-.443-.443c2.156 0 4.293 0 6.449.059l6.477.108 13.143.276zM55.593 192.493l-12.916.276-6.567.108c-2.185 0-4.39 0-6.586.049h-.394v-11.951h.493l13.034.059c4.342 0 8.693.108 13.034.157h.276v.266c0 1.871-.079 3.722-.128 5.563l-.246 5.473zm0 0-.138-5.572c0-1.831-.108-3.642-.128-5.444l.266.266c-4.342.049-8.693.157-13.034.157l-13.035.069.492-.492-.049 11.016-.443-.443c2.146 0 4.292 0 6.448.059l6.468.109 13.153.275zM487.755 119.593l-12.916.276-6.557.108c-2.195.049-4.401 0-6.596.049h-.433v-.443l-.059-11.016v-.492h.492l13.034.059c4.352 0 8.693.118 13.035.167h.276v.266c0 1.871-.079 3.731-.128 5.562l-.148 5.464zm0 0-.138-5.562c-.049-1.841-.108-3.652-.128-5.454l.266.266c-4.342.049-8.683.157-13.035.167l-13.034.059.492-.492-.049 11.016-.443-.443c2.146 0 4.292 0 6.448.059l6.478.109 13.143.275zM638.359 12.601l-12.917.276-6.566.108c-2.185 0-4.391 0-6.586.06h-.433V1.092h.492l13.034.059c4.342 0 8.693.118 13.035.167h.275v.266c0 1.87-.078 3.731-.128 5.562l-.206 5.454zm0 0-.138-5.562c-.049-1.84-.108-3.652-.128-5.454l.266.266c-4.342 0-8.693.157-13.035.167l-13.034.06.492-.493-.049 11.016-.443-.443c2.146 0 4.292 0 6.448.06l6.468.108 13.153.275zM652.899 26.492l-12.916.276-6.556.108c-2.196.05-4.401 0-6.596.06h-.434v-.444l-.059-11.016v-.492h.493l13.034.059c4.351 0 8.693.118 13.034.167h.276v.266c0 1.87-.089 3.731-.138 5.562l-.138 5.454zm0 0-.138-5.562c0-1.841-.108-3.652-.128-5.454l.266.266c-4.341 0-8.683.157-13.034.167l-13.034.06.492-.493v11.016l-.443-.443c2.146 0 4.292 0 6.448.06l6.478.107 13.093.276zM26.512 12.613l-12.926.276-6.557.108c-2.185 0-4.39 0-6.586.059H0V1.104h.502l13.034.07c4.342 0 8.684.108 13.035.157h.266v.266c0 1.87-.089 3.73-.128 5.572l-.197 5.444zm0 0-.148-5.562c0-1.832-.108-3.653-.128-5.454l.276.265c-4.352.06-8.693.158-13.035.168L.443 2.089l.492-.492-.059 11.016-.433-.384h6.438l6.478.108 13.153.276z" fill="#EBEBEB"/><path d="M20.27 102.089v212.764H232.71L20.27 102.089zm38.956 96.409 77.467 77.468H59.324l-.098-77.468z" fill="#DBDBDB"/><path d="M20.27 102.099v212.754h212.448L27.732 109.601l-.984-.985-6.478-6.517zm38.956 96.399 77.467 77.468H59.324l-.098-77.468z" fill="#EBEBEB"/><path d="M27.555 111.078H20.25v1.014h7.305v-1.014zM24.553 115.813H20.25v1.014h4.303v-1.014zM24.553 120.529H20.25v1.014h4.303v-1.014zM24.553 125.254H20.25v1.014h4.303v-1.014zM24.553 129.989H20.25v1.014h4.303v-1.014zM24.553 134.705H20.25v1.034h4.303v-1.034zM24.553 139.43H20.25v1.014h4.303v-1.014zM27.555 144.166H20.25v1.014h7.305v-1.014zM24.553 148.891H20.25v1.014h4.303v-1.014zM24.553 153.607H20.25v1.014h4.303v-1.014zM24.553 158.342H20.25v1.014h4.303v-1.014zM24.553 163.067H20.25v1.014h4.303v-1.014zM24.553 167.783H20.25v1.014h4.303v-1.014zM24.553 172.518H20.25v1.014h4.303v-1.014zM27.555 177.254H20.25v1.014h7.305v-1.014zM24.553 181.969H20.25v1.014h4.303v-1.014zM24.553 186.695H20.25v1.014h4.303v-1.014zM24.553 191.43H20.25v1.014h4.303v-1.014zM24.553 196.146H20.25v1.033h4.303v-1.033zM24.553 200.871H20.25v1.014h4.303v-1.014zM24.553 205.606H20.25v1.014h4.303v-1.014zM27.555 210.332H20.25v1.014h7.305v-1.014zM24.553 215.047H20.25v1.014h4.303v-1.014zM24.553 219.783H20.25v1.014h4.303v-1.014zM24.553 224.508H20.25v1.014h4.303v-1.014zM24.553 229.224H20.25v1.014h4.303v-1.014zM24.553 233.959H20.25v1.014h4.303v-1.014zM24.553 238.684H20.25v1.014h4.303v-1.014zM27.555 243.4H20.25v1.034h7.305V243.4zM24.553 248.135H20.25v1.014h4.303v-1.014zM24.553 252.871H20.25v1.014h4.303v-1.014zM24.553 257.596H20.25v1.014h4.303v-1.014zM24.553 262.312H20.25v1.014h4.303v-1.014zM24.553 267.047H20.25v1.014h4.303v-1.014zM24.553 271.772H20.25v1.014h4.303v-1.014zM27.555 276.488H20.25v1.014h7.305v-1.014zM24.553 281.223H20.25v1.014h4.303v-1.014zM24.553 285.949H20.25v1.014h4.303v-1.014zM24.553 290.664H20.25v1.014h4.303v-1.014zM24.553 295.4H20.25v1.014h4.303V295.4zM24.553 300.125H20.25v1.014h4.303v-1.014zM24.553 304.841H20.25v1.033h4.303v-1.033z" fill="#C7C7C7"/><path d="m8.18 314.853 79.812-.237 79.811-.088 159.621-.158 159.622.158 79.811.088 79.811.237-79.811.246-79.811.088-159.622.158-159.621-.158-79.811-.088-79.811-.246z" fill="#263238"/><path d="M327.424 412c168.218 0 304.585-10.274 304.585-22.948 0-12.674-136.367-22.948-304.585-22.948-168.217 0-304.584 10.274-304.584 22.948C22.84 401.726 159.207 412 327.424 412zM555.211 39.162H97.974v305.865h457.237V39.162z" fill="#EBEBEB"/><path d="M551.893 42.893H101.302v298.403h450.591V42.893z" fill="#263238"/><path d="M614.771 367.955H38.424v20.989H614.77v-20.989z" fill="#DBDBDB"/><path d="m38.424 367.955 59.55-22.938H555.22l59.551 22.938H38.424z" fill="#EBEBEB"/><path d="m103.29 359.823 38.434-14.806h369.747l38.433 14.806H103.29z" fill="#263238"/><path d="M526.425 65.556H126.76v253.057h399.665V65.556z" fill="#fff"/><path d="M519.327 75.302H126.76v45.945h392.567V75.302z" fill="gold"/><path d="M526.425 65.556H126.76v9.736h399.665v-9.736z" fill="#455A64"/><path d="M135.02 70.429a2.412 2.412 0 1 1-4.825-.002 2.412 2.412 0 0 1 4.825.002z" fill="#C7C7C7"/><path d="M144.884 70.429a2.416 2.416 0 0 1-1.49 2.245 2.424 2.424 0 0 1-3.307-1.765 2.419 2.419 0 0 1 2.385-2.892 2.414 2.414 0 0 1 2.412 2.412z" fill="#fff"/><path d="M154.749 70.429a2.422 2.422 0 1 1-4.843.018 2.422 2.422 0 0 1 4.843-.018z" fill="gold"/><path d="M526.435 75.302h-7.098v243.321h7.098V75.302z" fill="#DBDBDB"/><path d="M522.881 159.651a1.832 1.832 0 0 1-1.831-1.831V78.55a1.828 1.828 0 0 1 1.831-1.83 1.83 1.83 0 0 1 1.831 1.83v79.27a1.828 1.828 0 0 1-1.831 1.831z" fill="#A6A6A6"/><path d="M227.54 194.551h71.325v-54.717H227.54v54.717z" fill="gold"/><path opacity=".6" d="M234.638 151.795a6.476 6.476 0 0 0 3.291 6.983 6.48 6.48 0 0 0 7.637-1.124 6.48 6.48 0 0 0-1.804-10.439 6.483 6.483 0 0 0-7.349 1.269 6.485 6.485 0 0 0-1.775 3.311z" fill="#fff"/><path d="M251.069 182.757h47.796l-23.903-29.446-23.893 29.446z" fill="gold"/><path opacity=".2" d="M251.069 182.757h47.796l-23.903-29.446-23.893 29.446z" fill="#000"/><path d="M227.54 182.786h42.382l-21.186-19.177-21.196 19.177z" fill="gold"/><path opacity=".1" d="M227.54 182.786h42.382l-21.186-19.177-21.196 19.177z" fill="#000"/><path d="M298.865 182.767H227.54v11.794h71.325v-11.794z" fill="gold"/><path opacity=".1" d="M298.865 182.767H227.54v11.794h71.325v-11.794z" fill="#000"/><path d="M323.043 224.085h71.325v-84.074h-71.325v84.074z" fill="#455A64"/><path opacity=".6" d="M330.151 164.318a6.48 6.48 0 0 0 3.295 6.983 6.48 6.48 0 0 0 7.637-1.131 6.477 6.477 0 1 0-10.932-5.852z" fill="#fff"/><path d="M346.582 195.289h47.786l-23.893-29.455-23.893 29.455z" fill="#263238"/><path d="M323.053 195.309h42.382l-21.196-19.178-21.186 19.178z" fill="#37474F"/><path d="M394.378 195.289h-71.325v28.796h71.325v-28.796z" fill="#37474F"/><path d="M227.54 202.919a791.3 791.3 0 0 1 14.531-.286l14.531-.079 14.53.079c4.844.059 9.697.128 14.541.286-4.844.157-9.697.226-14.541.285l-14.53.079-14.531-.069c-4.844-.069-9.687-.148-14.531-.295zM227.54 208.953c3.643-.157 7.275-.226 10.918-.285 3.642-.059 7.275-.059 10.918-.089l10.917.089c3.643.059 7.276.128 10.918.285-3.642.148-7.275.217-10.918.286l-10.917.079c-3.643 0-7.276 0-10.918-.089-3.643-.088-7.275-.108-10.918-.276zM324.53 300.932h-1.851v-1.841h.738v1.103h1.113v.738zM389.918 300.932h-2.953v-.738h2.953v.738zm-5.906 0h-2.954v-.738h2.954v.738zm-5.907 0h-2.954v-.738h2.954v.738zm-5.907 0h-2.953v-.738h2.953v.738zm-5.907 0h-2.953v-.738h2.953v.738zm-5.907 0h-2.953v-.738h2.953v.738zm-5.907 0h-2.953v-.738h2.953v.738zm-5.906 0h-2.954v-.738h2.954v.738zm-5.907 0h-2.954v-.738h2.954v.738zm-5.907 0h-2.953v-.738h2.953v.738zm-5.907 0h-2.953v-.738h2.953v.738zM394.742 300.932h-1.851v-.738h1.113v-1.103h.738v1.841zM394.742 296.04h-.738v-3.042h.738v3.042zm0-6.084h-.738v-3.062h.738v3.062zm0-6.094h-.738v-3.042h.738v3.042zm0-6.094h-.738v-3.042h.738v3.042zm0-6.084h-.738v-3.042h.738v3.042zm0-6.094h-.738v-3.042h.738v3.042zm0-6.094h-.738v-3.042h.738v3.042zm0-6.084h-.738v-3.042h.738v3.042zM394.742 247.318h-.738v-1.102h-1.113v-.739h1.851v1.841zM389.918 246.216h-2.953v-.739h2.953v.739zm-5.906 0h-2.954v-.739h2.954v.739zm-5.907 0h-2.954v-.739h2.954v.739zm-5.907 0h-2.953v-.739h2.953v.739zm-5.907 0h-2.953v-.739h2.953v.739zm-5.907 0h-2.953v-.739h2.953v.739zm-5.907 0h-2.953v-.739h2.953v.739zm-5.906 0h-2.954v-.739h2.954v.739zm-5.907 0h-2.954v-.739h2.954v.739zm-5.907 0h-2.953v-.739h2.953v.739zm-5.907 0h-2.953v-.739h2.953v.739zM323.417 247.318h-.738v-1.841h1.851v.739h-1.113v1.102zM323.417 296.04h-.738v-3.042h.738v3.042zm0-6.084h-.738v-3.062h.738v3.062zm0-6.094h-.738v-3.042h.738v3.042zm0-6.094h-.738v-3.042h.738v3.042zm0-6.084h-.738v-3.042h.738v3.042zm0-6.094h-.738v-3.042h.738v3.042zm0-6.094h-.738v-3.042h.738v3.042zm0-6.084h-.738v-3.042h.738v3.042zM420.476 194.482h-1.851v-1.851h.739v1.112h1.112v.739zM485.865 194.482h-2.954v-.739h2.954v.739zm-5.907 0h-2.954v-.739h2.954v.739zm-5.907 0h-2.953v-.739h2.953v.739zm-5.907 0h-2.953v-.739h2.953v.739zm-5.907 0h-2.953v-.739h2.953v.739zm-5.906 0h-2.954v-.739h2.954v.739zm-5.907 0h-2.954v-.739h2.954v.739zm-5.907 0h-2.954v-.739h2.954v.739zm-5.907 0h-2.953v-.739h2.953v.739zm-5.907 0h-2.953v-.739h2.953v.739zm-5.907 0h-2.953v-.739h2.953v.739zM490.688 194.482h-1.85v-.739h1.112v-1.112h.738v1.851zM490.688 189.589h-.738v-3.042h.738v3.042zm0-6.094h-.738v-3.042h.738v3.042zm0-6.084h-.738v-3.052h.738v3.052zm0-6.094h-.738v-3.042h.738v3.042zm0-6.094h-.738v-3.042h.738v3.042zm0-6.084h-.738v-3.051h.738v3.051zm0-6.094h-.738v-2.992h.738v2.992zm0-6.093h-.738v-3.042h.738v3.042zM490.688 140.868h-.738v-1.113h-1.112v-.738h1.85v1.851zM485.865 139.755h-2.954v-.738h2.954v.738zm-5.907 0h-2.954v-.738h2.954v.738zm-5.907 0h-2.953v-.738h2.953v.738zm-5.907 0h-2.953v-.738h2.953v.738zm-5.907 0h-2.953v-.738h2.953v.738zm-5.906 0h-2.954v-.738h2.954v.738zm-5.907 0h-2.954v-.738h2.954v.738zm-5.907 0h-2.954v-.738h2.954v.738zm-5.907 0h-2.953v-.738h2.953v.738zm-5.907 0h-2.953v-.738h2.953v.738zm-5.907 0h-2.953v-.738h2.953v.738zM419.364 140.868h-.739v-1.851h1.851v.738h-1.112v1.113zM419.364 189.589h-.739v-3.042h.739v3.042zm0-6.094h-.739v-3.042h.739v3.042zm0-6.084h-.739v-3.052h.739v3.052zm0-6.094h-.739v-3.042h.739v3.042zm0-6.094h-.739v-3.042h.739v3.042zm0-6.084h-.739v-3.051h.739v3.051zm0-6.094h-.739v-2.992h.739v2.992zm0-6.093h-.739v-3.042h.739v3.042zM323.053 308.936c4.844-.157 9.688-.226 14.531-.285l14.531-.089 14.531.089c4.843.059 9.687.128 14.53.285-4.843.148-9.687.217-14.53.276l-14.531.088-14.531-.088c-4.843-.059-9.687-.128-14.531-.276zM323.053 314.961c3.633-.148 7.276-.217 10.918-.276 3.643-.059 7.275-.059 10.908-.088l10.918.078c3.642.06 7.285.138 10.917.286-3.632.157-7.275.226-10.917.285l-10.918.089c-3.633 0-7.275 0-10.908-.089-3.633-.088-7.285-.128-10.918-.285zM323.053 232.453c4.844-.148 9.688-.227 14.531-.286l14.531-.079 14.531.079c4.843.059 9.687.128 14.53.286-4.843.157-9.687.226-14.53.285l-14.531.079-14.531-.069c-4.843-.069-9.687-.148-14.531-.295zM323.053 238.487c3.633-.157 7.276-.226 10.918-.285 3.643-.059 7.275-.059 10.908-.089l10.918.089c3.642.059 7.285.128 10.917.285-3.632.148-7.275.217-10.917.286l-10.918.079c-3.633 0-7.275 0-10.908-.089-3.633-.088-7.285-.108-10.918-.276z" fill="#C7C7C7"/><path d="M227.54 300.578h71.325v-84.074H227.54v84.074z" fill="gold"/><path opacity=".2" d="M227.54 300.578h71.325v-84.074H227.54v84.074z" fill="#000"/><path opacity=".6" d="M234.638 240.811a6.472 6.472 0 0 0 .498 4.033 6.47 6.47 0 0 0 2.802 2.943 6.476 6.476 0 1 0 5.823-11.568 6.472 6.472 0 0 0-7.349 1.276 6.495 6.495 0 0 0-1.774 3.316z" fill="#fff"/><path d="M251.069 271.772h47.796l-23.903-29.445-23.893 29.445z" fill="gold"/><path opacity=".4" d="M251.069 271.772h47.796l-23.903-29.445-23.893 29.445z" fill="#000"/><path d="M227.54 271.802h42.382l-21.186-19.178-21.196 19.178z" fill="gold"/><path opacity=".3" d="M227.54 271.802h42.382l-21.186-19.178-21.196 19.178z" fill="#000"/><path opacity=".1" d="M298.865 271.772H227.54v28.796h71.325v-28.796z" fill="#000"/><path d="M227.54 308.936c4.844-.148 9.687-.217 14.531-.276l14.531-.088 14.53.078c4.844.06 9.697.138 14.541.286-4.844.158-9.697.226-14.541.286l-14.53.088-14.531-.088c-4.844-.06-9.687-.128-14.531-.286zM227.54 314.971c3.643-.158 7.275-.227 10.918-.286 3.642-.059 7.275-.049 10.918-.078l10.917.078c3.643.059 7.276.128 10.918.286-3.642.157-7.275.226-10.918.285l-10.917.079c-3.643 0-7.276 0-10.918-.079-3.643-.078-7.275-.138-10.918-.285zM490.688 300.942h-.827v-.738h.069v-2.146h.739l.019 2.884zm-3.76 0h-2.954v-.738h2.954v.738zm-5.907 0h-2.953v-.738h2.953v.738zm-5.907 0h-2.953v-.738h2.953v.738zm-5.907 0h-2.953v-.738h2.953v.738zm-5.906 0h-2.954v-.738h2.954v.738zm-5.907 0h-2.954v-.738h2.954v.738zm-5.907 0h-2.953v-.738h2.953v.738zm-5.907 0h-2.953v-.738h2.953v.738zm-5.907 0h-2.953v-.738h2.953v.738zm-5.906 0h-2.954v-.738h2.954v.738zm-5.907 0h-2.954v-.738h2.954v.738zm-5.907 0H419v-.738h2.953v.738zm-2.589-1.063h-.739v-2.953h.739v2.953zm71.324-4.775h-.738v-2.953h.738v2.953zm-71.324-1.132h-.739v-2.953h.739v2.953zm71.324-4.775h-.738v-2.953h.738v2.953zm-71.324-1.132h-.739v-2.953h.739v2.953zm71.324-4.774h-.738v-2.954h.738v2.954zm-71.324-1.132h-.739v-2.954h.739v2.954zm71.324-4.775h-.738v-2.954h.738v2.954zm-71.324-1.132h-.739v-2.954h.739v2.954zm71.324-4.775h-.738v-2.953h.738v2.953zm-71.324-1.132h-.739v-2.954h.739v2.954zm71.324-4.775h-.738v-2.953h.738v2.953zm-71.324-1.132h-.739v-2.953h.739v2.953zm71.324-4.775h-.738v-2.953h.738v2.953zm-71.324-1.132h-.739v-2.953h.739v2.953zm71.324-4.774h-.738v-2.954h.738v2.954zm-71.324-1.133h-.739v-2.953h.739v2.953zm71.324-4.774h-.738v-2.954h.738v2.954zm-71.324-1.132h-.739v-2.954h.739v2.954zm71.324-4.775h-.738v-2.953h.738v2.953zm-71.324-1.132h-.739v-2.954h.739v2.954zm71.324-4.775h-.738v-2.953h.738v2.953zm-71.324-1.132h-.739v-2.953h.739v2.953zm71.324-4.775h-.738v-2.953h.738v2.953zm-71.324-1.132h-.739v-2.953h.739v2.953zm71.324-4.774h-.738v-2.954h.738v2.954zm-71.324-1.133h-.739v-2.953h.739v2.953zm71.324-4.774h-.738v-1.447h-.768v-.739h1.506v2.186zm-71.324-1.132h-.739v-1.054h2.629v.739h-1.89v.315zm66.865-.315h-2.954v-.739h2.954v.739zm-5.907 0h-2.953v-.739h2.953v.739zm-5.907 0h-2.953v-.739h2.953v.739zm-5.907 0h-2.953v-.739h2.953v.739zm-5.906 0h-2.954v-.739h2.954v.739zm-5.907 0h-2.954v-.739h2.954v.739zm-5.907 0h-2.953v-.739h2.953v.739zm-5.907 0h-2.953v-.739h2.953v.739zm-5.907 0h-2.953v-.739h2.953v.739zm-5.906 0h-2.954v-.739h2.954v.739zm-5.907 0h-2.954v-.739h2.954v.739zM418.98 308.936c4.843-.148 9.687-.217 14.531-.276l14.53-.088 14.531.078c4.844.06 9.687.138 14.531.286-4.844.158-9.687.226-14.531.286l-14.531.088-14.53-.088c-4.824-.06-9.668-.128-14.531-.286zM418.98 314.971c3.633-.158 7.275-.227 10.918-.286 3.642-.059 7.275-.049 10.917-.078l10.918.078c3.633.059 7.275.128 10.918.286-3.643.157-7.285.226-10.918.285l-10.918.079c-3.642 0-7.285 0-10.917-.079-3.633-.078-7.266-.138-10.918-.285zM418.557 202.919c4.843-.148 9.687-.227 14.53-.286l14.531-.079 14.541.079c4.843.059 9.687.128 14.53.286-4.843.157-9.687.226-14.53.285l-14.541.079-14.531-.069c-4.843-.069-9.687-.148-14.53-.295zM418.557 208.953c3.642-.157 7.275-.226 10.917-.285 3.643-.059 7.275-.059 10.918-.089l10.918.089c3.642.059 7.275.128 10.917.285-3.642.148-7.275.217-10.917.286l-10.918.079c-3.643 0-7.275 0-10.918-.089-3.642-.088-7.275-.108-10.917-.276z" fill="#C7C7C7"/><path d="M185.326 163.766h-38.522v5.09h38.522v-5.09z" fill="#37474F"/><path d="M179.843 171.622h-33.039v2.373h33.039v-2.373z" fill="#455A64"/><path d="M158.007 182.973c3.633-.157 7.275-.226 10.918-.285 3.642-.059 7.275-.059 10.908-.089l10.918.089c3.642.059 7.285.128 10.917.285-3.632.148-7.275.227-10.917.286l-10.918.079c-3.633 0-7.275 0-10.908-.079-3.633-.079-7.285-.138-10.918-.286zM158.007 189.008c3.633-.157 7.275-.226 10.918-.285 3.642-.059 7.275-.059 10.908-.089l10.918.089c3.642.059 7.285.128 10.917.285-3.632.148-7.275.217-10.917.276l-10.918.088c-3.633 0-7.275 0-10.908-.088-3.633-.089-7.285-.128-10.918-.276zM158.007 195.033c3.633-.148 7.275-.226 10.918-.285 3.642-.06 7.275-.05 10.908-.079l10.918.079c3.642.059 7.285.137 10.917.285-3.632.158-7.275.227-10.917.286l-10.918.088c-3.633 0-7.275 0-10.908-.088-3.633-.089-7.285-.128-10.918-.286zM158.007 201.068c3.633-.158 7.275-.227 10.918-.286 3.642-.059 7.275-.049 10.908-.088l10.918.088c3.642.059 7.285.128 10.917.286-3.632.148-7.275.226-10.917.285l-10.918.079c-3.633 0-7.275 0-10.908-.079-3.633-.078-7.285-.108-10.918-.285zM158.007 213.128c3.633-.148 7.275-.217 10.918-.276 3.642-.059 7.275-.059 10.908-.089l10.918.079c3.642.059 7.285.138 10.917.286-3.632.157-7.275.226-10.917.285l-10.918.089c-3.633 0-7.275 0-10.908-.089-3.633-.089-7.285-.128-10.918-.285zM158.007 219.162c3.633-.157 7.275-.226 10.918-.285 3.642-.059 7.275-.049 10.908-.089l10.918.089c3.642.059 7.285.128 10.917.285-3.632.148-7.275.227-10.917.286l-10.918.079c-3.633 0-7.275 0-10.908-.079-3.633-.079-7.285-.138-10.918-.286zM158.007 225.197c3.633-.157 7.275-.226 10.918-.285 3.642-.059 7.275-.059 10.908-.089l10.918.089c3.642.059 7.285.128 10.917.285-3.632.148-7.275.217-10.917.276l-10.918.088c-3.633 0-7.275 0-10.908-.088-3.633-.089-7.285-.128-10.918-.276zM158.007 237.257c3.633-.158 7.275-.226 10.918-.286 3.642-.059 7.275-.049 10.908-.088l10.918.088c3.642.06 7.285.128 10.917.286-3.632.157-7.275.226-10.917.285l-10.918.079c-3.633 0-7.275 0-10.908-.079-3.633-.078-7.285-.137-10.918-.285zM158.007 243.292c3.633-.158 7.275-.227 10.918-.286 3.642-.059 7.275-.059 10.908-.088l10.918.088c3.642.059 7.285.128 10.917.286-3.632.147-7.275.216-10.917.275l-10.918.089c-3.633 0-7.275 0-10.908-.089-3.633-.088-7.285-.128-10.918-.275zM158.007 249.317c3.633-.148 7.275-.217 10.918-.276 3.642-.059 7.275-.059 10.908-.089l10.918.079c3.642.059 7.285.138 10.917.286-3.632.157-7.275.226-10.917.285l-10.918.089c-3.633 0-7.275 0-10.908-.089-3.633-.088-7.285-.118-10.918-.285zM146.804 255.558c3.633-.147 7.275-.216 10.918-.275 3.642-.06 7.275-.06 10.917-.089l10.918.079c3.633.059 7.275.138 10.918.285-3.643.158-7.285.227-10.918.286l-10.918.088c-3.642 0-7.285 0-10.917-.088-3.633-.089-7.285-.128-10.918-.286zM146.804 279.491c3.633-.158 7.275-.227 10.918-.286 3.642-.059 7.275-.059 10.917-.088l10.918.088c3.633.059 7.275.128 10.918.286-3.643.147-7.285.216-10.918.275l-10.918.089c-3.642 0-7.285 0-10.917-.089-3.633-.088-7.285-.128-10.918-.275zM146.804 283.251c2.953-.147 5.848-.226 8.772-.285 2.923-.059 5.847-.049 8.771-.079 2.924-.03 5.848 0 8.772.079 2.924.079 5.848.128 8.771.285-2.953.158-5.847.227-8.771.286-2.924.059-5.848.059-8.772.079-2.924.019-5.848 0-8.771-.079-2.924-.079-5.848-.138-8.772-.286z" fill="#C7C7C7"/><path d="M169.959 264.251h-5.907a1.31 1.31 0 0 0-1.31 1.329v6.055a1.317 1.317 0 0 0 1.31 1.329h5.907a1.316 1.316 0 0 0 1.206-.825 1.3 1.3 0 0 0 .093-.504v-6.055a1.304 1.304 0 0 0-.797-1.225 1.315 1.315 0 0 0-.502-.104zm.403 2.205v.079a2.46 2.46 0 0 1-.571.581.166.166 0 0 0-.059.147 4.088 4.088 0 0 1-.472 1.969 3.768 3.768 0 0 1-2.491 2.019 4.017 4.017 0 0 1-2.333-.099h-.099l-.393-.197-.286-.167a2.955 2.955 0 0 0 1.969-.601l-.286-.059a1.386 1.386 0 0 1-.984-.846.119.119 0 0 1 0-.079h.079a1.2 1.2 0 0 0 .492 0 .508.508 0 0 0-.187-.079 1.413 1.413 0 0 1-.896-1.211c0-.128 0-.128.108-.078.162.07.336.11.512.118a1.538 1.538 0 0 1-.334-.335 1.413 1.413 0 0 1-.128-1.496c0-.06 0-.079.098 0a3.86 3.86 0 0 0 2.314 1.368c.127 0 .265 0 .403.059s.108 0 .089-.098a1.422 1.422 0 0 1 .242-1.064 1.415 1.415 0 0 1 .929-.571 1.298 1.298 0 0 1 1.162.374s.079.06.138 0c.223-.054.441-.13.65-.226a.44.44 0 0 0 .127-.108.865.865 0 0 1-.196.453 2.271 2.271 0 0 1-.345.334c.253-.036.501-.102.738-.197l.01.01zM187.157 268.484v-2.107c.01-.167.01-.334 0-.502a1.81 1.81 0 0 0-1.181-1.516 2.83 2.83 0 0 0-.985-.128h-4.646a1.805 1.805 0 0 0-1.575 1.201c-.104.318-.15.651-.138.985v4.253c.001.23.018.46.049.689a1.767 1.767 0 0 0 .984 1.329 2.39 2.39 0 0 0 1.074.207h4.243a2.78 2.78 0 0 0 .63-.059 1.721 1.721 0 0 0 1.378-1.152c.11-.316.16-.65.148-.985v-2.215h.019zm-1.092 1.28a1.97 1.97 0 0 1-1.576 1.969 1.9 1.9 0 0 1-.413 0h-2.353a1.973 1.973 0 0 1-1.969-1.615 2.71 2.71 0 0 1 0-.403v-2.412a1.966 1.966 0 0 1 1.496-1.969c.165-.039.333-.059.503-.059h2.51a1.97 1.97 0 0 1 1.752 1.555c.02.154.02.309 0 .463l.05 2.471z" fill="gold"/><path d="M183.938 268.583a.983.983 0 0 1-1.701.603.985.985 0 1 1 1.701-.603z" fill="gold"/><path d="M184.105 265.905h-2.382a1.437 1.437 0 0 0-1.01.428 1.43 1.43 0 0 0-.408 1.019v2.451a1.439 1.439 0 0 0 .412 1.013 1.424 1.424 0 0 0 1.006.425h2.402a1.413 1.413 0 0 0 1.003-.426 1.424 1.424 0 0 0 .405-1.012v-2.451a1.42 1.42 0 0 0-.405-1.028 1.412 1.412 0 0 0-1.023-.419zm-1.201 4.253a1.602 1.602 0 0 1-1.606-1.899 1.603 1.603 0 0 1 3.182.294 1.597 1.597 0 0 1-1.576 1.605zm1.723-2.954a.393.393 0 1 1 .295-.665.393.393 0 0 1-.295.665z" fill="gold"/><path d="M207.487 104.767a11.935 11.935 0 0 1-2.048-6.606c0-8.368 9.195-15.15 20.526-15.15s20.516 6.782 20.516 15.15-9.185 15.161-20.516 15.161a24.668 24.668 0 0 1-14.157-4.194l-7.068 1.802 2.747-6.163z" fill="#fff"/><path d="M217.833 95.365v5.661h-.669v-2.58h-3.121v2.58h-.719v-5.66h.719v2.441h3.121v-2.442h.669zM223.071 100.386v.64h-3.84v-5.66h3.771v.63h-3.062v1.88h2.658v.59h-2.658v1.97l3.131-.05zM224.055 101.026v-5.66h.709v5.02h3.16v.64h-3.869zM228.672 101.026v-5.66h.719v5.02h3.15v.64h-3.869zM235.445 101.066a2.333 2.333 0 0 1-1.082-.247 2.493 2.493 0 0 1-.847-.649 2.873 2.873 0 0 1-.542-.916c-.125-.34-.189-.7-.187-1.063a2.958 2.958 0 0 1 .758-1.969c.241-.267.532-.484.857-.64a2.4 2.4 0 0 1 1.063-.226c.376-.007.747.078 1.083.246.32.162.604.387.837.66.234.27.418.58.541.915a2.932 2.932 0 0 1-.01 2.136 3.091 3.091 0 0 1-.561.916c-.235.266-.524.48-.846.63-.334.149-.698.22-1.064.207zm-1.968-2.875c-.001.285.049.569.147.837.084.26.218.5.394.709.167.207.375.377.61.502.249.12.522.181.798.177.285.007.567-.061.817-.197.237-.126.445-.3.61-.512.171-.21.298-.45.374-.709.09-.26.136-.532.138-.807a2.705 2.705 0 0 0-.138-.837 2.284 2.284 0 0 0-.403-.709c-.17-.2-.377-.364-.611-.482a1.63 1.63 0 0 0-.787-.187 1.72 1.72 0 0 0-.817.187 1.97 1.97 0 0 0-.611.502c-.17.215-.3.458-.384.719a2.536 2.536 0 0 0-.108.807h-.029zM239.127 99.106v-3.8h.68v3.8h-.68zm0 1.92v-.984h.68v.984h-.68z" fill="#000"/><path d="M430.587 267.834H328.773v73.806h101.814v-73.806zM364.745 260.195h-35.972v7.639h38.04l-2.068-7.639z" fill="gold"/><g opacity=".1" fill="#000"><path opacity=".1" d="M430.587 267.834H328.773v73.806h101.814v-73.806zM364.745 260.195h-35.972v7.639h38.04l-2.068-7.639z"/></g><path d="M429.711 222.126a3.586 3.586 0 0 1 0-3.623c.34.541.512 1.172.492 1.811a3.411 3.411 0 0 1-.492 1.812zM426.019 223.189a3.26 3.26 0 0 1-1.329-1.329 3.224 3.224 0 0 1-.483-1.812 3.26 3.26 0 0 1 1.329 1.329 3.39 3.39 0 0 1 .483 1.812zM423.351 225.955a3.244 3.244 0 0 1-1.821-.482 3.305 3.305 0 0 1-1.32-1.329 3.197 3.197 0 0 1 1.812.482 3.32 3.32 0 0 1 1.329 1.329zM422.426 229.686a3.346 3.346 0 0 1-1.812.493 3.304 3.304 0 0 1-1.811-.493 3.208 3.208 0 0 1 1.811-.492 3.411 3.411 0 0 1 1.812.492zM423.489 233.378a3.402 3.402 0 0 1-1.329 1.339 3.309 3.309 0 0 1-1.812.473 3.305 3.305 0 0 1 1.319-1.33 3.42 3.42 0 0 1 1.822-.482zM426.255 236.046a3.325 3.325 0 0 1-.482 1.821 3.302 3.302 0 0 1-1.329 1.319 3.196 3.196 0 0 1 .482-1.811 3.32 3.32 0 0 1 1.329-1.329zM429.986 236.971a3.592 3.592 0 0 1 0 3.633 3.267 3.267 0 0 1-.492-1.821 3.432 3.432 0 0 1 .492-1.812zM433.678 235.908a3.409 3.409 0 0 1 1.339 1.329 3.3 3.3 0 0 1 .472 1.812 3.304 3.304 0 0 1-1.329-1.32 3.415 3.415 0 0 1-.482-1.821zM436.346 233.142a3.42 3.42 0 0 1 1.821.482 3.296 3.296 0 0 1 1.319 1.329 3.196 3.196 0 0 1-1.811-.482 3.314 3.314 0 0 1-1.329-1.329zM437.271 229.411a3.592 3.592 0 0 1 3.633 0 3.278 3.278 0 0 1-1.821.492 3.411 3.411 0 0 1-1.812-.492zM436.208 225.719a3.32 3.32 0 0 1 1.329-1.329 3.215 3.215 0 0 1 1.812-.482 3.31 3.31 0 0 1-1.32 1.329 3.42 3.42 0 0 1-1.821.482zM433.442 223.051a3.61 3.61 0 0 1 1.811-3.14 3.247 3.247 0 0 1-.482 1.821 3.302 3.302 0 0 1-1.329 1.319z" fill="#263238"/><path d="M358.711 284.275h71.324v-54.717h-71.324v54.717z" fill="#EBEBEB"/><path opacity=".6" d="M365.819 241.52a6.471 6.471 0 0 0 3.299 6.976 6.479 6.479 0 1 0 5.824-11.569 6.482 6.482 0 0 0-4.034-.497 6.484 6.484 0 0 0-5.089 5.09z" fill="#fff"/><path d="M382.24 272.481h47.795l-23.902-29.455-23.893 29.455z" fill="#C7C7C7"/><path d="M358.711 272.511h42.381l-21.186-19.178-21.195 19.178z" fill="#DBDBDB"/><path d="M430.035 272.481h-71.324v11.794h71.324v-11.794z" fill="#DBDBDB"/><path d="M384.829 267.943v71.325h84.073v-71.325h-84.073z" fill="#455A64"/><path opacity=".6" d="M444.576 275.08a6.476 6.476 0 0 0-6.983 3.291 6.478 6.478 0 1 0 6.983-3.291z" fill="#fff"/><path d="M413.624 291.481v47.796l29.456-23.903-29.456-23.893z" fill="#263238"/><path d="M413.605 267.953v42.381l19.177-21.186-19.177-21.195z" fill="#37474F"/><path d="M413.624 339.277v-71.324h-28.795v71.324h28.795z" fill="#37474F"/><path d="M342.969 332.357h71.325v-84.074h-71.325v84.074z" fill="gold"/><path opacity=".2" d="M342.969 332.357h71.325v-84.074h-71.325v84.074z" fill="#000"/><path opacity=".6" d="M350.067 272.599a6.474 6.474 0 0 0 3.304 6.977 6.482 6.482 0 0 0 7.635-1.139 6.483 6.483 0 0 0 1.124-7.637 6.48 6.48 0 0 0-12.063 1.799z" fill="#fff"/><path d="M366.508 303.561h47.786l-23.893-29.455-23.893 29.455z" fill="gold"/><path opacity=".4" d="M366.508 303.561h47.786l-23.893-29.455-23.893 29.455z" fill="#000"/><path d="M342.979 303.59h42.381l-21.195-19.177-21.186 19.177z" fill="gold"/><path opacity=".3" d="M342.979 303.59h42.381l-21.195-19.177-21.186 19.177z" fill="#000"/><path opacity=".1" d="M414.304 303.561h-71.325v28.796h71.325v-28.796z" fill="#000"/><path d="M430.321 341.64H328.507l-7.856-67.682h101.814l7.856 67.682zM355.816 266.948h-35.982l.817 7.01h38.04l-2.875-7.01z" fill="gold"/><path d="M193.609 140.711c10.757-10.757 10.757-28.198 0-38.955-10.757-10.757-28.198-10.757-38.955 0-10.757 10.757-10.757 28.198 0 38.955 10.757 10.757 28.198 10.757 38.955 0z" fill="#455A64"/><path d="m178.08 135.433-.078.128-.729 1.221c-.866 1.437-2.323 3.879-3.938 6.596l-1.457 2.432-.177.285-1.427 2.412a26.759 26.759 0 0 1-7.453-2.156 8.459 8.459 0 0 1-.758-.344 31.892 31.892 0 0 1-1.26-.65l-.305-.187a.407.407 0 0 1-.148-.089.675.675 0 0 0-.069.099.606.606 0 0 0 .069-.099 5.774 5.774 0 0 1-.472-.276 27.647 27.647 0 0 1-7.65-6.891 10.148 10.148 0 0 1 2.481-2.618c3.101-2.078 8.86-2.57 14.098-2.097a38.98 38.98 0 0 1 3.938.541c1.849.31 3.646.88 5.335 1.693z" fill="#C7C7C7"/><path d="M186.498 145.849a27.196 27.196 0 0 1-12.119 2.953h-.689a24.407 24.407 0 0 1-3.416-.265 26.792 26.792 0 0 1-7.453-2.156 8.763 8.763 0 0 1-.758-.345 30.599 30.599 0 0 1-1.26-.65l-.305-.187c.719-.984 1.506-2.087 2.382-3.16a59.276 59.276 0 0 1 5.287-5.611c.198-.187.412-.355.64-.502a8.258 8.258 0 0 1 4.922-1.152c1.457.06 2.897.335 4.273.817 1.108.359 2.161.869 3.13 1.516a6.746 6.746 0 0 1 1.507 1.349l.157.197a34.71 34.71 0 0 1 3.702 7.196z" fill="#C7C7C7"/><path d="M163.294 141.34c-.138.227-.266.443-.414.67-.679 1.122-1.378 2.234-2.077 3.347l-.305-.187a.407.407 0 0 1-.148-.089c.945-1.28 1.91-2.53 2.944-3.741zM160.951 142.502a7.268 7.268 0 0 1-.453 2.116c-.059.148-.108.306-.177.453-.158-.078-.315-.177-.473-.275 0-.128.089-.246.128-.374a7.65 7.65 0 0 1 .975-1.92z" fill="#263238"/><path d="M173.69 148.773a24.258 24.258 0 0 1-3.416-.266 26.759 26.759 0 0 1-7.453-2.156c1.684-2.953 5.11-4.489 8.86-.256.434.485.835.998 1.201 1.536l.808 1.142z" fill="#D3766A"/><path d="M174.379 148.773h-.689a24.258 24.258 0 0 1-3.416-.266 26.759 26.759 0 0 1-7.453-2.156 8.459 8.459 0 0 1-.758-.344c1.31-4.312 4.755-5.454 9.845-.197a32.109 32.109 0 0 1 2.471 2.963z" fill="#C7C7C7"/><path d="M180.128 146.262c-2.52.493-8.506-3.455-11.164-7.137-.177-.256-.118-3.16-.206-6.704-.069-2.146-.187-4.529-.463-6.704-.059-.443 1.565.187 1.565.187l2.895.325 9.578 1.102a34.901 34.901 0 0 0-.285 8.506c.045.297.114.59.207.876.002.049.002.099 0 .148.521 1.664 1.811 8.634-2.127 9.401z" fill="#D3766A"/><path d="M182.255 136.713c.002.049.002.099 0 .148-.455.122-.92.204-1.388.246-9.205.984-11.814-10.583-11.814-10.583l3.642-.295 9.579 1.102a34.852 34.852 0 0 0-.285 8.506c.064.299.153.592.266.876z" fill="#263238"/><path d="M165.765 107.337c-1.477 4.873 1.132 18.921 4.607 22.052 5.031 4.528 13.241 4.922 17.09-1.093 3.732-5.907 0-24.12-3.868-26.955-5.701-4.184-15.654-1.201-17.829 5.996z" fill="#D3766A"/><path d="M178.543 115.527s-.059.059-.049.099c.246.935.364 2.038-.413 2.55 0 0 0 .059 0 0 1.023-.335.846-1.802.462-2.649z" fill="#263238"/><path d="M177.49 114.74c-1.536.226-.985 3.278.453 3.071 1.437-.206.827-3.268-.453-3.071zM184.165 114.326s.078 0 .088.069c.148.985.473 2.018 1.388 2.176-1.073.098-1.496-1.319-1.476-2.245z" fill="#263238"/><path d="M184.824 113.175c1.506-.394 2.186 2.638.797 3.002-1.388.364-2.057-2.668-.797-3.002zM176.023 113.558c.378-.19.746-.401 1.103-.63.417-.167.764-.473.984-.866a.627.627 0 0 0-.246-.758 1.624 1.624 0 0 0-1.644.128 2.42 2.42 0 0 0-1.172 1.27.704.704 0 0 0 .198.758.696.696 0 0 0 .777.098zM185.661 111.786a10.998 10.998 0 0 1-1.27-.088 2.063 2.063 0 0 1-1.28-.335.66.66 0 0 1-.108-.797 1.629 1.629 0 0 1 1.536-.601 2.423 2.423 0 0 1 1.604.64.7.7 0 0 1-.482 1.181z" fill="#263238"/><path d="M179.823 121.503c.311.329.687.591 1.104.768.416.178.865.269 1.318.266a3.93 3.93 0 0 0 1.161-.158c.075-.015.147-.038.217-.069l.207-.069a.23.23 0 0 0 .115-.098.232.232 0 0 0 .032-.148.535.535 0 0 0 0-.098v-.089c-.108-.728-.383-1.821-.383-1.821.285.079 1.762.443 1.663.059a49.17 49.17 0 0 0-3.052-9.52.09.09 0 0 0-.113-.054.087.087 0 0 0-.05.046.087.087 0 0 0-.004.067c.62 3.023 1.772 5.907 2.442 8.949a5.533 5.533 0 0 0-1.605-.177c-.099 0 .571 2.107.6 2.432a4.568 4.568 0 0 1-3.534-.414c-.128-.039-.187.04-.118.128z" fill="#263238"/><path d="M182.914 122.064a3.94 3.94 0 0 1-1.319 1.477 1.716 1.716 0 0 1-.984.256c-.798-.059-.985-.748-.916-1.368.016-.334.072-.665.167-.985a5.066 5.066 0 0 0 3.052.62z" fill="#263238"/><path d="M181.595 123.541a1.716 1.716 0 0 1-.984.256c-.798-.059-.985-.748-.916-1.369.395-.052.797.029 1.141.23.344.202.611.513.759.883z" fill="#FF9BBC"/><path d="M166.444 120.834c2.56-1.044 2.954-10.062 2.954-10.062s.393 3.761 1.082 3.594c.69-.168 3.023-5.592 2.954-9.284a28.909 28.909 0 0 0 7.058 2.53c3.456.63 7.128 0 7.069-.571-.187-1.693-2.215-5.956-4.686-7.265a12.033 12.033 0 0 0-12.07-.148c-5.227 2.698-6.281 6.37-6.783 9.175-.502 2.806 1.477 12.415 2.422 12.031z" fill="#263238"/><path d="M181.438 115.33a2.754 2.754 0 0 0-.119-.374 2.043 2.043 0 0 0-.108-.256 4.51 4.51 0 0 0-5.68-2.451 2.645 2.645 0 0 0-.286.118 4.52 4.52 0 0 0-2.687 3.79c-.015.2-.015.401 0 .601.018.437.104.869.256 1.28a4.53 4.53 0 0 0 1.844 2.277 4.527 4.527 0 0 0 3.944.43 4.514 4.514 0 0 0 2.954-4.263 4.219 4.219 0 0 0-.118-1.152zm-3.033 4.844a3.934 3.934 0 0 1-4.749-2.064 3.938 3.938 0 0 1 1.402-4.985c.215-.131.442-.24.679-.325.319-.109.649-.178.985-.206a3.934 3.934 0 0 1 4.066 2.559 3.94 3.94 0 0 1-2.383 5.021zM190.258 113.539a5.449 5.449 0 0 0-1.644-2.865 3.514 3.514 0 0 0-1.043-.66 2.662 2.662 0 0 0-1.605-.157 2.192 2.192 0 0 0-.689.275 3.189 3.189 0 0 0-1.359 1.556 4.927 4.927 0 0 0-.384 2.294c.002.228.029.456.079.679.012.096.028.191.049.286.13.603.356 1.181.67 1.713a3.598 3.598 0 0 0 3.278 2.028l.295-.05c.357-.079.693-.233.985-.453a4.608 4.608 0 0 0 1.368-4.646zm-1.398 3.938a2.05 2.05 0 0 1-1.053.61 2.955 2.955 0 0 1-2.953-1.802 3.16 3.16 0 0 1-.306-.669.103.103 0 0 1-.007-.034c0-.012.003-.024.007-.035a4.973 4.973 0 0 1-.196-.679 5.173 5.173 0 0 1-.089-.522.548.548 0 0 1 0-.128v-.069a4.627 4.627 0 0 1 .315-2.205c.032-.071.068-.14.108-.207a2.379 2.379 0 0 1 1.388-1.25h.365a2.234 2.234 0 0 1 1.437.374c.162.096.313.208.453.335a4.778 4.778 0 0 1 1.417 2.569 4.21 4.21 0 0 1-.886 3.712z" fill="gold"/><path d="m181.28 115.498-.473-.374c.542-.709 1.969-1.802 3.259-.886l-.345.502c-1.191-.827-2.382.689-2.441.758zM161.847 120.922l-.591-.157c.079-.266.758-2.668 2.028-3.17 1.27-.502 9.274-1.457 9.608-1.497l.079.601c-2.323.285-8.545 1.093-9.47 1.457-.926.364-1.467 2.107-1.654 2.766z" fill="gold"/><path d="M168.797 118.786s-3.278-4.469-5.316-3.288c-2.038 1.181.502 7.708 2.953 8.555a2.47 2.47 0 0 0 1.933-.001 2.47 2.47 0 0 0 1.336-1.397l-.906-3.869z" fill="#D3766A"/><path d="M164.259 117.349v.069a6.204 6.204 0 0 1 3.297 3.819 1.346 1.346 0 0 0-1.525-.602 1.351 1.351 0 0 0-.512.277s0 .099.049.089a1.5 1.5 0 0 1 1.673.492c.326.412.606.858.837 1.329.079.148.355.059.286-.108-.03-2.195-1.782-5.149-4.105-5.365z" fill="#263238"/><path d="M179.803 98.91a20.667 20.667 0 0 0-5.749-1.704c-2.225-.285-9.244.266-10.928 1.674-1.683 1.408-2.126 8.023-2.175 8.988-.05.965.393 6.823 2.52 8.23 2.126 1.408 2.313-8.525 5.651-11.813 3.337-3.288 10.681-5.375 10.681-5.375z" fill="gold"/><path opacity=".1" d="M179.803 98.91s-7.334 2.067-10.671 5.365c-3.338 3.298-3.544 13.231-5.671 11.814a4.718 4.718 0 0 1-1.772-3.102c.443-2.894 1.615-7.403 4.036-10.523 2.265-2.954 6.163-4.41 10.337-4.923a22.96 22.96 0 0 1 3.741 1.369z" fill="#000"/><path d="M164.052 121.995c.187-2.648 2.875-9.736 5.7-13.782 2.825-4.046 11.124-6.448 12.286-6.38 2.816.158 3.771.985 4.214.758.443-.226-2.452-2.362-3.249-2.845-.798-.482-2.954-1.585-4.155-1.555-1.201.03-8.781.787-11.518 4.007-2.737 3.219-6.625 12.256-5.907 14.57.178.551.916.906 1.152 1.693.305 1.034.522 2.225.837 2.954.315.728.591.817.64.58z" fill="gold"/><path d="M170.392 106.372a13.493 13.493 0 0 1-1.831-1.349 9.644 9.644 0 0 1-1.566-1.664h-.078a7.57 7.57 0 0 0 1.427 1.881 6.192 6.192 0 0 0 1.969 1.22c.098.079.158-.049.079-.088zM164.003 119.357a5.862 5.862 0 0 0-.286-.551 3.031 3.031 0 0 1-.256-.65 5.83 5.83 0 0 0-.295-1.29 5.064 5.064 0 0 0-.62-.876 1.71 1.71 0 0 1-.522-1.073c0-.059-.089-.059-.089 0 .112.748.418 1.454.886 2.048.161.448.283.909.364 1.378.109.433.354.82.699 1.103.119.029.168-.03.119-.089zM164.987 116.492c-.256-.305-.522-.571-.748-.896a7.588 7.588 0 0 1-.571-.984c-.167-.335-.305-.679-.463-.985-.157-.305-.433-.777-.6-1.191 0-.049-.099 0-.079 0 .177.423.276.886.443 1.31.141.372.309.734.502 1.082.178.348.389.677.63.985.232.307.523.565.857.758 0 0 .029-.059.029-.079zM165.893 113.903a7.546 7.546 0 0 1-1.438-1.624 34.466 34.466 0 0 1-1.082-1.841h-.079c.219.693.526 1.355.915 1.969.19.304.415.584.67.836.3.26.63.481.984.66 0 0 .109.03.03 0zM166.956 111.422a2.546 2.546 0 0 1-.709-.709c-.226-.295-.453-.6-.659-.905-.207-.306-.424-.591-.621-.886a2.598 2.598 0 0 1-.482-.985h-.079c.033.346.137.681.305.985.168.365.369.715.601 1.043.227.32.473.626.738.916.214.282.515.486.857.581a.067.067 0 0 0 .03-.013.058.058 0 0 0 .019-.027zM172.43 104.866c-.266-.325-.522-.65-.808-.985-.285-.335-.62-.591-.984-.856a11.039 11.039 0 0 0-2.058-1.388s-.098 0-.059.068c1.26 1.074 2.56 2.097 3.8 3.18.079.079.138.02.109-.019zM174.024 102.591a5.6 5.6 0 0 0-.895-.846 11.914 11.914 0 0 0-2.275-1.26l-.049.069c.689.462 1.388.905 2.048 1.398.344.238.673.498.984.777.296.276.532.611.817.906h.05a3.065 3.065 0 0 0-.68-1.044zM176.23 101.558a6.263 6.263 0 0 0-.827-.857 6.974 6.974 0 0 0-1.969-1.132c-.049 0-.079.06 0 .079.646.388 1.258.829 1.831 1.319.285.246.561.512.827.768.266.256.512.581.807.807a5.47 5.47 0 0 0-.669-.984zM177.785 100.229a17.428 17.428 0 0 0-.866-.64 3.382 3.382 0 0 0-.916-.522v.079l1.615 1.319c.463.441.878.93 1.24 1.457 0 0 .059 0 0 0a3.46 3.46 0 0 0-1.073-1.693zM179.813 99.845a5.525 5.525 0 0 0-1.772-1.103s-.079.06 0 .079c.597.32 1.141.728 1.615 1.211a9.82 9.82 0 0 1 1.27 1.575s.069 0 0 0a4.524 4.524 0 0 0-1.113-1.762zM182.412 100.987a3.258 3.258 0 0 0-.226-.404 5.185 5.185 0 0 0-.591-.718 9.113 9.113 0 0 0-1.506-1.152s-.089 0 0 .069c.511.344.983.744 1.408 1.19.208.219.396.457.561.71.088.118.167.243.236.374.063.13.135.255.217.374h.078a1.077 1.077 0 0 0-.177-.443z" fill="#263238"/><path d="m571.661 322.541 14.767 29.406c2.865 5.602 5.267 10.564 6.271 13.251.31.611.472 1.285.473 1.969v.05c-1.093 1.968-45.207 26.147-47.028 26.472-1.822.325-2.895-4.844-1.969-7.147.925-2.304 13.723-19.119 13.723-19.119l-14.521-29.534 28.284-15.348z" fill="#D3766A"/><path d="m583.435 345.962 3.042 6.035c2.865 5.601 5.267 10.563 6.271 13.251a9.06 9.06 0 0 1 .473 1.969v.049c-1.093 1.969-45.207 26.147-47.028 26.472-1.822.325-2.895-4.843-1.969-7.147.925-2.304 13.723-19.118 13.723-19.118l-3.111-6.104 28.599-15.407z" fill="#fff"/><path d="M555.25 368.87c2.727-1.968 6.625-3.347 9.953-2.333.128 0 .069.227 0 .246a46.71 46.71 0 0 0-9.717 2.462.23.23 0 0 1-.08.031.232.232 0 0 1-.166-.038.216.216 0 0 1-.09-.143.226.226 0 0 1 .037-.165.225.225 0 0 1 .063-.06zM553.724 371.233c2.727-2.018 6.616-3.347 9.953-2.333.128 0 .069.226 0 .236a46.794 46.794 0 0 0-9.717 2.471.22.22 0 0 1-.305-.069.22.22 0 0 1 .069-.305zM552.198 373.596c2.727-2.028 6.616-3.357 9.953-2.333.128 0 .069.216 0 .236a46.794 46.794 0 0 0-9.717 2.471.212.212 0 0 1-.08.031.232.232 0 0 1-.087-.002.225.225 0 0 1-.169-.178.232.232 0 0 1 .002-.087.222.222 0 0 1 .098-.138z" fill="#263238"/><path d="M546.193 393.709c1.821-.325 45.935-24.484 47.028-26.473.433-.748-2.717-7.383-6.744-15.289l-.128-.246-28.638 15.269.276.483s-12.798 16.805-13.724 19.108c-.925 2.304.099 7.482 1.93 7.148z" fill="gold"/><path d="M545.75 391.73c7.334-4.263 37.331-20.733 44.911-24.385.059 0 .079 0 0 0-7.177 4.38-37.301 20.604-44.862 24.454-.138.128-.207.019-.049-.069z" fill="#263238"/><path d="M551.981 359.272c-.354-.167-20.496-37.764-27.722-56.115-7.226-18.35-16.451-57.611-18.252-65.684 0 0-4.745-17.828-6.449-32.999h38.729s5.573 15.643 4.106 37.41c-.089 1.349 11.498 46.211 14.767 52.177 5.021 9.145 26.58 47.737 27.23 48.071l-32.409 17.14z" fill="#37474F"/><path d="M513.883 216.396c2.047 8.86 3.829 17.72 5.7 26.581 1.87 8.86 3.78 17.819 5.66 26.728.936 4.401 1.831 8.801 2.806 13.182a79.42 79.42 0 0 0 3.81 12.69c1.644 4.056 3.544 8.013 5.405 11.971 1.86 3.958 3.78 7.954 5.71 11.912a984.847 984.847 0 0 0 11.981 23.676c.502.985.984 1.969 1.526 2.885a.075.075 0 0 1 .002.049.077.077 0 0 1-.031.038.074.074 0 0 1-.048.008.077.077 0 0 1-.042-.026c-4.321-7.709-8.515-15.496-12.512-23.381-3.997-7.886-7.925-15.752-11.499-23.864a73.877 73.877 0 0 1-4.272-12.355c-1.064-4.322-1.901-8.693-2.806-13.054-1.871-8.959-3.738-17.917-5.602-26.876-1.851-8.919-3.721-17.838-5.533-26.758a147.363 147.363 0 0 1-.649-3.308.2.2 0 0 1 .04-.133.204.204 0 0 1 .116-.078.202.202 0 0 1 .139.014c.043.02.078.056.099.099zM550.81 351.938a78.317 78.317 0 0 1 6.891-3.938 580.335 580.335 0 0 1 6.891-3.722c4.647-2.461 9.264-5.06 14.059-7.226a.102.102 0 0 1 .067-.001.102.102 0 0 1 .053.043.099.099 0 0 1-.022.126c-4.41 2.953-9.155 5.434-13.782 7.944a283.12 283.12 0 0 1-7.079 3.692 68.117 68.117 0 0 1-6.97 3.298c-.147.02-.197-.148-.108-.216z" fill="#455A64"/><path d="m514.67 344.574-.276 32.92c0 6.301-.147 11.814-.482 14.659a.082.082 0 0 1 0 .049 4.368 4.368 0 0 1-.463 1.969c-1.88 1.26-52.176 2.57-53.939 2.028-1.762-.541-.354-5.631 1.556-7.245 1.91-1.615 20.92-10.702 20.92-10.702l.59-32.891 32.094-.787z" fill="#D3766A"/><path d="m514.473 370.741-.059 6.753c0 6.301-.147 11.814-.482 14.659a.102.102 0 0 1 0 .049 8.02 8.02 0 0 1-.463 1.969c-1.88 1.26-52.177 2.57-53.939 2.028-1.762-.541-.354-5.631 1.556-7.245 1.909-1.615 20.9-10.702 20.9-10.702v-6.891l32.487-.62z" fill="#fff"/><path d="M478.885 378.262c3.347-.551 7.422.05 9.923 2.481.089.099 0 .236-.148.197a46.744 46.744 0 0 0-9.765-2.254.217.217 0 0 1-.01-.424zM476.453 379.67c3.347-.551 7.413 0 9.914 2.471.098.099 0 .236-.148.197a47.278 47.278 0 0 0-9.766-2.254.206.206 0 0 1-.146-.061.206.206 0 0 1 .146-.353zM474.012 381.068c3.347-.551 7.413 0 9.913 2.481.099.088 0 .226-.148.187a46.725 46.725 0 0 0-9.765-2.245.214.214 0 0 1-.171-.211.215.215 0 0 1 .171-.212z" fill="#263238"/><path d="M459.461 396.17c1.772.541 52.059-.758 53.939-2.028.729-.473.985-7.807.985-16.736v-.276l-32.488.483v.551s-19.02 9.106-20.949 10.721c-1.93 1.614-3.259 6.783-1.487 7.285z" fill="gold"/><path d="M459.983 394.201c8.466-.424 42.677-1.359 51.084-1.132.069 0 .069.049 0 .049-8.388.61-42.598 1.26-51.084 1.221-.177.039-.177-.089 0-.138z" fill="#263238"/><path d="M520.626 239.305s-5.542 54.421-5.631 55.711c0 .502.817 73.077.817 73.077l-34.456.118s-.296-67.101.266-74.82c.068-.896 3.406-57.63 14.077-88.956h40.748s-.355 18.409-8.723 31.709a71.298 71.298 0 0 0-7.098 3.161z" fill="#37474F"/><path d="M490.403 301.109c.157-10.071.571-20.122 1.368-30.154.798-10.032 1.969-19.817 3.633-29.652a244.707 244.707 0 0 1 6.468-29.317c.364-1.211.719-2.412 1.093-3.613a.122.122 0 0 1 .064-.076.133.133 0 0 1 .048-.014.14.14 0 0 1 .05.006.126.126 0 0 1 .089.112.12.12 0 0 1-.005.05c-2.589 9.638-4.834 19.365-6.527 29.2-1.694 9.835-2.816 19.866-3.662 29.859-.847 9.992-1.33 20.073-1.586 30.134-.255 10.061-.275 20.083-.177 30.125.099 10.041.493 13.95.522 23.982v3.77a.07.07 0 0 1-.02.049.07.07 0 0 1-.098 0 .074.074 0 0 1-.02-.049c-.177-5.04-.492-10.071-.649-15.112-.158-5.04-.315-3.937-.434-9.017-.197-10.042-.315-20.192-.157-30.283zM515.182 241.805c1.969-1.093 4.056-2.077 6.153-2.953 2.097-.876 4.253-1.703 6.35-2.648.079 0 .147.088.069.128-2.058 1.063-4.076 2.195-6.163 3.199a49.033 49.033 0 0 1-6.31 2.53.137.137 0 0 1-.105-.003.137.137 0 0 1 .006-.253z" fill="#455A64"/><path d="M517.722 263.513a617.735 617.735 0 0 1 1.683-15.388c.178-1.437.374-2.884.562-4.331a32.46 32.46 0 0 1 .679-4.135.072.072 0 0 1 .025-.032.077.077 0 0 1 .039-.011.068.068 0 0 1 .064.043 32.806 32.806 0 0 1-.256 3.938l-.355 3.711c-.246 2.55-.472 5.09-.728 7.64-.522 5.089-.985 10.199-1.497 15.289-.295 2.894-.561 5.798-.984 8.683 0 .206-.345.216-.345 0 .109-5.149.601-10.298 1.113-15.407zM482.734 359.439a79.545 79.545 0 0 1 7.964-.138c2.626 0 5.231.027 7.817.079 5.257.079 10.563 0 15.801.473.026 0 .051.01.069.029a.098.098 0 0 1-.069.168c-5.287.433-10.642.315-15.939.265-2.625 0-5.283-.062-7.974-.187a69.284 69.284 0 0 1-7.699-.492c-.118-.02-.078-.187.03-.197z" fill="#455A64"/><path d="M518.047 166.188c-3.702 4.844-18.577 18.055-28.136 16.943-8.575-.985-22.761-26.945-25.124-38.119-.837-3.938 16.46-1.752 19.384.404 2.511 1.851 9.983 19.079 11.233 19.079 2.097 0 7.817-2.127 17.031-5.336 8.664-3.012 8.221 3.623 5.612 7.029z" fill="#D3766A"/><path d="m487.351 148.448-22.643.719s12.798 32.763 25.085 34.771c2.825.463 17.72-4.007 27.762-16.086 3.101-3.741 6.261-12.798-6.498-8.585-12.759 4.214-15.259 4.627-15.623 4.45-.365-.177-8.083-15.269-8.083-15.269z" fill="#C7C7C7"/><path d="M467.652 153.567c1.752-.295 3.564-.344 5.336-.462 1.772-.119 3.504-.227 5.257-.325 3.534-.187 7.088-.463 10.622-.424a.068.068 0 0 1 .032.026.074.074 0 0 1 .012.038.075.075 0 0 1-.012.039.072.072 0 0 1-.032.025c-3.534.542-7.127.719-10.691.936-1.782.108-3.574.187-5.366.256-1.727.098-3.46.098-5.188 0-.059.029-.049-.089.03-.109z" fill="#263238"/><path d="M433.471 197.563h71.325v-54.717h-71.325v54.717z" fill="gold"/><path opacity=".6" d="M440.569 154.808a6.475 6.475 0 0 0 7.31 7.668 6.479 6.479 0 1 0-7.31-7.668z" fill="#fff"/><path d="M457 185.769h47.786l-23.893-29.445L457 185.769z" fill="gold"/><path opacity=".2" d="M457 185.769h47.786l-23.893-29.445L457 185.769z" fill="#000"/><path d="M433.461 185.799h42.391l-21.195-19.178-21.196 19.178z" fill="gold"/><path opacity=".1" d="M433.461 185.799h42.391l-21.195-19.178-21.196 19.178z" fill="#000"/><path d="M504.786 185.769h-71.325v11.794h71.325v-11.794z" fill="gold"/><path opacity=".1" d="M504.786 185.769h-71.325v11.794h71.325v-11.794z" fill="#000"/><path d="M492.815 146.115c-2.816-2.186-5.907-6.823-8.417-7.699a3.032 3.032 0 0 0-3.505.985s-.719-2.855-3.121-3.279c-1.24-.216-2.678 1.576-2.678 1.576a3.64 3.64 0 0 0-2.835-2.511c-1.723-.187-2.953 1.634-2.953 1.634s-1.654-1.87-3.475-1.506c-3.692.739-6.892 15.289-2.048 18.705 2.264 1.605 2.865-1.969 2.865-1.969s.393 5.375 3.376 6.114c2.983.738 3.466-3.938 3.466-3.938s.433 5.208 3.603 5.661c3.17.452 2.953-4.322 2.953-4.322s1.487 3.711 3.938 3.504c4.135-.344.62-7.541 2.087-10.573l5.661-.6 1.083-1.782z" fill="#D3766A"/><path d="M488.877 142.226c2.855 1.841 7.551-1.162 10.534.207 4.036 1.851-1.172 5.71-7.561 5.405l-4.922-1.103 1.949-4.509z" fill="#D3766A"/><path d="M475.094 137.619a.054.054 0 0 0-.021-.026.064.064 0 0 0-.033-.01.063.063 0 0 0-.032.01.056.056 0 0 0-.022.026 24.19 24.19 0 0 0-1.605 16.736c.06.197.306.305.256.079-.836-3.879.01-12.257 1.457-16.815zM480.371 155.881c-1.398-5.484-.896-10.829.414-16.293 0-.069-.079-.089-.109 0-1.368 2.481-1.841 6.044-1.969 8.86a14.957 14.957 0 0 0 1.477 7.531c.039.04.217-.019.187-.098z" fill="#263238"/><path d="M509.108 164.003c2.166.423 7.295-2.954 9.579-6.134.157-.216.098-2.717.187-5.749 0-1.851.157-3.938.384-5.769.059-.374-1.339.167-1.339.167l-2.481.276-8.23.985c.381 2.412.463 4.862.246 7.294a4.29 4.29 0 0 1-.177.759v.128c-.453 1.388-1.556 7.373 1.831 8.043z" fill="#D3766A"/><path d="M507.277 155.802v.128c.39.105.788.174 1.191.207 7.876.807 10.13-9.087 10.13-9.087l-3.13-.256-8.231.985c.381 2.412.464 4.862.247 7.294a4.363 4.363 0 0 1-.207.729z" fill="#263238"/><path d="M521.433 130.57c1.27 4.184-.984 16.254-3.937 18.941-4.322 3.938-11.381 4.243-14.679-.984-3.209-5.031 0-20.674 3.318-23.145 4.893-3.554 13.428-.985 15.298 5.188z" fill="#D3766A"/><path d="M508.95 137.511s.059.059.049.088c-.206.798-.315 1.753.355 2.186v.049c-.876-.335-.729-1.595-.404-2.323z" fill="#263238"/><path d="M509.866 136.831c1.319.197.827 2.826-.394 2.639-1.221-.187-.719-2.796.394-2.639zM504.629 136.575s-.069 0-.069.059c-.128.817-.404 1.733-1.192 1.861v.049c.936.04 1.261-1.181 1.261-1.969z" fill="#263238"/><path d="M504.087 135.591c-1.29-.345-1.88 2.264-.689 2.579 1.191.315 1.762-2.294.689-2.579zM511.116 135.827c-.335-.157-.63-.354-.984-.541a1.795 1.795 0 0 1-.867-.749.565.565 0 0 1 .217-.649 1.394 1.394 0 0 1 1.408.108c.451.231.802.62.984 1.093a.6.6 0 0 1-.758.738zM503.359 134.4c.365-.007.73-.033 1.092-.079.39.024.777-.079 1.103-.295a.554.554 0 0 0 .059-.709 1.387 1.387 0 0 0-1.319-.512 2.035 2.035 0 0 0-1.378.541.607.607 0 0 0 .091.959.624.624 0 0 0 .352.095zM508.783 145.308c-.226.157-.473.383-.768.354a2.206 2.206 0 0 1-.837-.364h-.049a1.133 1.133 0 0 0 .985.64.878.878 0 0 0 .767-.601c0-.02-.059-.049-.098-.029z" fill="#263238"/><path d="M508.379 142.718a2.832 2.832 0 0 1-2.077.896 3.526 3.526 0 0 1-.984-.147l-.187-.05-.168-.059a.218.218 0 0 1-.128-.216.262.262 0 0 1 0-.079v-.069c.099-.63.335-1.565.335-1.565-.256.069-1.516.374-1.437.059a41.728 41.728 0 0 1 2.628-8.181.078.078 0 0 1 .038-.042.072.072 0 0 1 .056-.002c.018.006.033.02.041.037a.078.078 0 0 1 .003.056c-.532 2.599-1.516 5.08-2.097 7.679.45-.114.914-.164 1.378-.148.089 0-.492 1.812-.512 2.097a3.937 3.937 0 0 0 3.032-.364c.089-.02.138.039.079.098z" fill="#263238"/><path d="M505.731 143.22c.257.512.644.946 1.122 1.261.264.168.574.248.886.226.68 0 .808-.64.788-1.171a3.55 3.55 0 0 0-.148-.837 4.33 4.33 0 0 1-2.648.521z" fill="#263238"/><path d="M506.853 144.481c.264.168.574.248.886.226.68 0 .808-.64.788-1.171a1.55 1.55 0 0 0-1.674.945z" fill="#FF9BBC"/><path d="M520.853 142.177c-2.196-.896-2.511-8.634-2.511-8.634s-.335 3.229-.935 3.091c-.601-.137-2.589-4.804-2.52-7.984a24.727 24.727 0 0 1-6.065 2.176c-2.953.541-6.123 0-6.074-.492.168-1.457 1.91-5.11 4.037-6.232a10.324 10.324 0 0 1 10.356-.128 9.97 9.97 0 0 1 5.828 7.876c.443 2.451-1.309 10.642-2.116 10.327z" fill="#263238"/><path d="M509.551 142.177a3.94 3.94 0 0 1-2.629-4.824 3.888 3.888 0 1 1 2.629 4.824zm-2.127-4.676a3.37 3.37 0 0 0 2.923 4.307 3.363 3.363 0 0 0 3.286-1.786 3.366 3.366 0 0 0-2.025-4.795 3.992 3.992 0 0 0-.827-.138 3.373 3.373 0 0 0-3.406 2.402l.049.01zM501.399 140.887c-1.575-.246-2.589-2.175-2.254-4.292a4.618 4.618 0 0 1 1.231-2.55 2.423 2.423 0 0 1 1.001-.711 2.423 2.423 0 0 1 2.348.368c.326.259.58.597.736.983.424.871.561 1.852.394 2.806-.305 1.969-1.713 3.475-3.2 3.416l-.256-.02zm-.659-6.478a4.082 4.082 0 0 0-1.083 2.275c-.285 1.831.532 3.485 1.821 3.682 1.29.196 2.58-1.123 2.865-2.954a4.097 4.097 0 0 0-.335-2.491 2.098 2.098 0 0 0-1.486-1.201h-.197a2.16 2.16 0 0 0-1.585.689z" fill="gold"/><path d="m506.932 137.806.394-.335c-.502-.581-1.743-1.447-2.845-.59l.325.403c.974-.768 2.087.473 2.126.522zM523.885 141.468l.492-.167c-.079-.227-.788-2.255-1.9-2.619-1.113-.364-8.023-.768-8.319-.787v.521c1.969.118 7.384.493 8.191.758.807.266 1.349 1.733 1.536 2.294z" fill="gold"/><path d="M518.834 140.405s2.816-3.84 4.558-2.826c1.743 1.014-.423 6.626-2.52 7.354a2.123 2.123 0 0 1-2.815-1.201l.777-3.327z" fill="#D3766A"/><path d="M509.384 123.334a17.976 17.976 0 0 1 4.922-1.467c1.92-.236 7.945.237 9.392 1.448 1.447 1.21 1.821 6.891 1.86 7.718.04.827-.334 5.857-2.156 7.068-1.821 1.211-1.969-7.324-4.863-10.159-2.894-2.836-9.155-4.608-9.155-4.608z" fill="gold"/><path opacity=".1" d="M509.383 123.344s6.301 1.762 9.166 4.598c2.865 2.835 3.042 11.37 4.863 10.159a4.024 4.024 0 0 0 1.526-2.668c-.384-2.49-1.388-6.359-3.465-9.037-1.969-2.51-5.297-3.79-8.861-4.194a19.06 19.06 0 0 0-3.229 1.142z" fill="#000"/><path d="M522.91 143.161c-.167-2.274-2.471-8.358-4.922-11.813-2.452-3.456-9.55-5.533-10.554-5.474-2.421.128-3.239.866-3.623.65-.383-.217 2.107-2.038 2.796-2.442a9.076 9.076 0 0 1 3.564-1.338c1.054 0 7.541.669 9.894 3.435 2.353 2.767 5.69 10.524 5.08 12.513-.148.472-.788.788-.985 1.457-.265.886-.452 1.91-.728 2.53-.276.62-.512.679-.522.482z" fill="gold"/><path d="M522.152 138.436c.217-.266.443-.492.64-.778.182-.269.343-.552.482-.846.148-.286.266-.591.404-.877.138-.285.374-.669.512-.984 0-.049.089 0 .069 0-.148.364-.236.748-.374 1.122a8.105 8.105 0 0 1-.443.926c-.15.289-.328.563-.532.817a2.348 2.348 0 0 1-.738.65s-.04-.01-.02-.03zM521.364 136.211c.48-.403.898-.874 1.241-1.398a30.9 30.9 0 0 0 .925-1.575h.069a7.463 7.463 0 0 1-.787 1.733 4.059 4.059 0 0 1-.581.718 4.643 4.643 0 0 1-.817.561s-.128.02-.05-.039zM515.714 128.444c.226-.276.443-.552.699-.808.256-.256.521-.502.807-.738a10.024 10.024 0 0 1 1.762-1.181s.089 0 0 .059c-1.073.915-2.195 1.791-3.259 2.727l-.009-.059zM514.345 126.504c.226-.275.484-.523.768-.738a10.451 10.451 0 0 1 1.969-1.083s.089 0 0 .069c-.591.394-1.181.768-1.752 1.201a8.797 8.797 0 0 0-.808.659c-.256.247-.452.532-.699.778h-.049a2.51 2.51 0 0 1 .571-.886zM512.504 125.608c.208-.268.446-.513.709-.728a5.45 5.45 0 0 1 1.664-.985s.069.05 0 .069c-.556.328-1.08.707-1.566 1.132l-.718.66c-.236.217-.433.492-.689.689.17-.299.371-.579.6-.837zM511.087 124.457c.236-.197.482-.375.738-.562a2.97 2.97 0 0 1 .788-.443s.059.05 0 .069a79.77 79.77 0 0 0-1.379 1.132 7.716 7.716 0 0 0-1.073 1.251 2.957 2.957 0 0 1 .926-1.447zM509.374 124.102c.445-.417.962-.75 1.526-.984 0 0 .068 0 0 .069a5.73 5.73 0 0 0-1.388 1.043c-.407.411-.77.863-1.083 1.349 0 0-.059 0 0 0 .2-.557.523-1.062.945-1.477zM507.139 125.126c.059-.128.128-.236.197-.354.151-.219.323-.424.512-.611a7.464 7.464 0 0 1 1.289-.984s.079 0 0 .059a7.15 7.15 0 0 0-1.211.984 7.277 7.277 0 0 0-.492.601 5.31 5.31 0 0 0-.197.325c-.05.114-.113.223-.187.325h-.069c.03-.124.084-.241.158-.345zM505.771 125.244c.129-.18.271-.351.423-.512.148-.161.305-.312.472-.453l.512-.433s.089 0 0 .059a3.651 3.651 0 0 0-.482.473l-.423.472-.434.483c-.137.157-.265.344-.423.492h-.049c.114-.207.249-.402.404-.581z" fill="#263238"/><path d="M543.298 221.328c-.118.138-52.334 1.142-52.816.611-.67-.739 7.875-53.073 16.155-64.483 2.077-2.855 9.48-4.804 12.562-1.91 8.939 8.388 10.829 15.436 13.142 21.196a171.325 171.325 0 0 1 5.691 19.02c3.11 12.296 5.68 25.074 5.266 25.566z" fill="#C7C7C7"/><path d="M513.755 164.436c-.827 7.236-7.207 34.978-15.969 38.965-10.622 4.834-25.084 7.443-32.664 7.689-4.017.138-.552-21.806 3.081-21.787 5.73 0 16.037-2.431 18.075-2.953 2.038-.522 12.099-16.47 17.917-24.828 5.238-7.531 10.042-1.359 9.56 2.914z" fill="#D3766A"/><path d="M469.798 210.588c-8.014.836-17.947 2.353-26.216-1.428a4.491 4.491 0 0 1-2.186-1.969c-3.731-1.624-4.085-3.879-4.085-3.879-3.023-2.589-3.062-4.922-3.062-4.922s-4.371-1.969-3.623-4.794c.827-3.18 6.803.197 11.213 0 10.13-.345 25.911-3.731 28.825-4.125l-.866 21.117z" fill="#D3766A"/><path d="M452.698 200.684c-2.955.13-5.915.065-8.86-.197a64.927 64.927 0 0 1-9.5-2.195.08.08 0 0 0-.061 0 .08.08 0 0 0-.043.044.079.079 0 0 0 .045.103 34.453 34.453 0 0 0 18.419 2.383c.138-.03.148-.138 0-.138zM453.791 206.758c-2.905-.118-8.004-.354-16.461-3.564 0 0-.059 0 0 .05a30.842 30.842 0 0 0 16.48 3.652c.158 0 .177-.128-.019-.138zM454.322 210.036a48.353 48.353 0 0 1-12.916-2.884v.049c5.405 2.442 7.639 2.707 12.946 3.013.157.009.157-.109-.03-.178z" fill="#263238"/><path d="M454.017 192.385c1.299-.561.984-1.25-1.427-1.89-2.412-.64-12.641-1.083-12.188-4.627.453-3.544 14.668-2.038 18.823-1.339a28.872 28.872 0 0 1 12.01 5.257c-2.835.433-11.675 1.782-17.218 2.599z" fill="#D3766A"/><path d="m472.407 187.984-.571 23.234s20.979-2.412 27.782-8.004c6.802-5.592 12.079-24.435 13.979-35.077 1.9-10.642-3.209-17.356-12.473-3.101-9.264 14.255-14.078 20.143-14.905 20.674-.827.532-13.812 2.274-13.812 2.274z" fill="#C7C7C7"/><path d="M492.598 206.571c.069-.118 8.034-4.036 9.56-6.566 1.191-1.969 7.383-15.417 11.252-30.194h.069a71.321 71.321 0 0 1-1.556 7.157l.207-.345a33.758 33.758 0 0 0 1.723-3.022c0-.079.148 0 .108.069-.521.985-.984 2.087-1.437 3.121-.246.502-.482.984-.768 1.486-.098.178-.216.374-.335.562a89.997 89.997 0 0 1-.639 2.185c-.552 1.831-5.799 16.411-8.536 19.886-1.733 2.186-8.86 5.612-9.667 5.769-.089.04-.03-.029.019-.108zM476.286 209.751a51.073 51.073 0 0 1-.059-5.365c0-1.753.029-3.505.088-5.258.079-3.534.079-7.107.384-10.632 0-.079.128-.088.128 0 .276 3.554.177 7.157.118 10.731 0 1.782-.088 3.574-.167 5.355a43.345 43.345 0 0 1-.364 5.179c-.01.088-.128.059-.128-.01z" fill="#263238"/><path d="M508.862 155.644c4.134-2.224 15.515-3.199 20.093-.118 5.788 3.879 11.114 26.374 8.752 27.703-4.204 2.373-18.784-10.691-21.964-16.056-3.18-5.366-6.881-11.529-6.881-11.529z" fill="#C7C7C7"/><path d="M511.805 162.368c.739.778 1.506 1.546 2.245 2.334-.985-1.556-1.969-3.101-2.954-4.686 0-.06 0-.119.089-.069a58.725 58.725 0 0 1 3.613 5.04c1.201 1.733 2.402 3.465 3.692 5.139a42.98 42.98 0 0 0 4.135 4.755 43.688 43.688 0 0 0 5.148 4.174 63.469 63.469 0 0 0 3.092 2.117 25.347 25.347 0 0 0 3.534 1.919c.226.089.079.158 0 .138a18.516 18.516 0 0 1-3.023-1.447c-.984-.571-1.968-1.152-3.002-1.742a39.203 39.203 0 0 1-5.444-3.781 39.967 39.967 0 0 1-7.974-10.041l-.138-.207c-.443-.473-.867-.985-1.28-1.467a37.656 37.656 0 0 0-1.88-2.087c-.01-.059.088-.148.147-.089z" fill="#263238"/></svg>