<svg width="32" height="32" fill="none" xmlns="http://www.w3.org/2000/svg"><path d="M16.54 12.663h2.86v2.924h1.446a6.27 6.27 0 0 0 1.988-.333c.336-.111.66-.257.966-.436a3.584 3.584 0 0 1-.67-1.849c-.12-.973.13-1.956.7-2.753l.3-.348.358.288a4.558 4.558 0 0 1 1.795 2.892 4.375 4.375 0 0 1 3.319.309l.393.226-.207.4a4.14 4.14 0 0 1-4.157 1.983c-2.48 6.168-7.871 9.088-14.409 9.088-3.378 0-6.476-1.263-8.241-4.259l-.029-.049-.252-.519a8.316 8.316 0 0 1-.659-4.208l.04-.433h2.445v-2.923h2.861V9.8h5.721V6.942h3.432v5.721z" fill="#0096E6"/><path d="M12.006 24.567a6.022 6.022 0 0 1-3.14-3.089c-.74.198-1.499.313-2.264.343-.333.019-.682.028-1.045.028-.421 0-.865-.012-1.331-.037a9.051 9.051 0 0 0 7 2.769c.261 0 .521-.005.78-.014zM7.08 13.346h.2v2.067h-.2v-2.067zm-.376 0h.2v2.067H6.7v-2.067h.004zm-.376 0h.2v2.067h-.2v-2.067zm-.376 0h.2v2.067h-.2v-2.067zm-.376 0h.2v2.067h-.2v-2.067zm-.368 0h.2v2.067h-.2v-2.067zM5 13.14h2.482v2.479H5V13.14zm2.859-2.861h2.48v2.479H7.863l-.004-2.479zm2.077.207h.2v2.066h-.2v-2.066zm-.376 0h.2v2.066h-.2v-2.066zm-.376 0h.2v2.066h-.2v-2.066zm-.376 0h.2v2.066h-.2v-2.066zm-.376 0h.2v2.066h-.2v-2.066zm-.368 0h.2v2.066h-.2v-2.066zm-.207 2.653h2.48v2.48H7.863V13.14l-.006-.001zm2.077.207h.2v2.067h-.2v-2.067zm-.376 0h.2v2.067h-.2v-2.067zm-.376 0h.2v2.067h-.2v-2.067zm-.376 0h.2v2.067h-.2v-2.067zm-.376 0h.2v2.067h-.2v-2.067zm-.368 0h.2v2.067h-.2v-2.067zm2.654-.207H13.2v2.48h-2.48V13.14l-.004-.001zm2.076.207H13v2.067h-.2l-.008-2.067zm-.376 0h.2v2.067h-.2v-2.067zm-.376 0h.2v2.067h-.2v-2.067zm-.376 0h.2v2.067h-.2v-2.067zm-.376 0h.2v2.067h-.2v-2.067zm-.368 0h.2v2.067h-.2v-2.067zm-.206-3.067H13.2v2.479h-2.48v-2.479h-.006zm2.076.207H13v2.066h-.2l-.01-2.066zm-.376 0h.2v2.066h-.2v-2.066zm-.376 0h.2v2.066h-.2v-2.066zm-.376 0h.2v2.066h-.2v-2.066zm-.376 0h.2v2.066h-.2v-2.066zm-.368 0h.2v2.066h-.2v-2.066zm2.654 2.653h2.479v2.48h-2.48V13.14l.001-.001zm2.076.207h.2v2.067h-.2v-2.067zm-.376 0h.2v2.067h-.2v-2.067zm-.376 0h.2v2.067h-.2v-2.067zm-.376 0h.2v2.067h-.2v-2.067zm-.376 0h.2v2.067h-.2v-2.067zm-.368 0h.192v2.067h-.2v-2.067h.008zm-.206-3.067h2.479v2.479h-2.48v-2.479h.001zm2.076.207h.2v2.066h-.2v-2.066zm-.376 0h.2v2.066h-.2v-2.066zm-.376 0h.2v2.066h-.2v-2.066zm-.376 0h.2v2.066h-.2v-2.066zm-.376 0h.2v2.066h-.2v-2.066zm-.368 0h.192v2.066h-.2v-2.066h.008zm-.206-3.067h2.479V9.9h-2.48V7.419h.001zm2.076.206h.2v2.066h-.2V7.625zm-.376 0h.2v2.066h-.2V7.625zm-.376 0h.2v2.066h-.2V7.625zm-.376 0h.2v2.066h-.2V7.625zm-.376 0h.2v2.066h-.2V7.625zm-.368 0h.192v2.066h-.2V7.625h.008zm2.654 5.514h2.479v2.48h-2.48V13.14l.001-.001zm2.076.207h.195v2.067h-.2v-2.067h.005zm-.376 0h.206v2.067h-.206v-2.067zm-.376 0h.2v2.067h-.2v-2.067zm-.376 0h.2v2.067h-.2v-2.067zm-.376 0h.2v2.067h-.205v-2.067h.005zm-.368 0h.2v2.067h-.194v-2.067h-.006zM10.188 19.638a.683.683 0 1 1 0 1.367.683.683 0 0 1 0-1.367zm0 .194c.06 0 .12.011.177.033a.2.2 0 1 0 .275.269.49.49 0 1 1-.453-.3l.001-.002z" fill="#fff"/></svg>