<svg width="32" height="32" fill="none" xmlns="http://www.w3.org/2000/svg"><g clip-path="url(#a)"><path d="M31.396 14.575 17.425.604a2.061 2.061 0 0 0-2.914 0L11.61 3.505l3.68 3.68a2.446 2.446 0 0 1 3.1 3.12l3.546 3.547a2.451 2.451 0 1 1-.935 4.05 2.453 2.453 0 0 1-.534-2.667l-3.307-3.308v8.705a2.452 2.452 0 1 1-2.016-.071v-8.786a2.451 2.451 0 0 1-1.33-3.216l-3.63-3.629-9.58 9.58a2.061 2.061 0 0 0 0 2.915l13.972 13.971c.804.805 2.109.805 2.914 0L31.396 17.49a2.062 2.062 0 0 0 0-2.915" fill="#DE4C36"/></g><defs><clipPath id="a"><path fill="#fff" d="M0 0h32v32H0z"/></clipPath></defs></svg>