<svg width="32" height="32" fill="none" xmlns="http://www.w3.org/2000/svg"><path d="M16 18.474a2.5 2.5 0 1 0 0-5 2.5 2.5 0 0 0 0 5z" fill="#00D8FF"/><path d="M16 21.706a28.383 28.383 0 0 1-8.88-1.2 11.298 11.298 0 0 1-3.657-1.958A3.542 3.542 0 0 1 2 15.974c0-1.653 1.816-3.273 4.858-4.333A28.758 28.758 0 0 1 16 10.293a28.677 28.677 0 0 1 9.022 1.324c1.28.408 2.478 1.04 3.538 1.866A3.392 3.392 0 0 1 30 15.974c0 1.718-2.03 3.459-5.3 4.541a28.797 28.797 0 0 1-8.7 1.191zm0-10.217c-2.966-.04-5.92.393-8.749 1.282-2.8.977-4.055 2.313-4.055 3.2 0 .928 1.349 2.387 4.311 3.4 2.753.826 5.62 1.21 8.493 1.139 2.816.05 5.624-.33 8.325-1.13C27.4 18.361 28.8 16.9 28.8 15.974a2.329 2.329 0 0 0-1.01-1.573 10.196 10.196 0 0 0-3.161-1.654A27.464 27.464 0 0 0 16 11.489z" fill="#00D8FF"/><path d="M10.32 28.443a2.64 2.64 0 0 1-1.336-.328c-1.432-.826-1.928-3.208-1.327-6.373a28.755 28.755 0 0 1 3.4-8.593c1.49-2.67 3.4-5.086 5.653-7.154a11.377 11.377 0 0 1 3.384-2.133 3.391 3.391 0 0 1 2.878 0c1.489.858 1.982 3.486 1.287 6.859a28.806 28.806 0 0 1-3.316 8.133 28.386 28.386 0 0 1-5.476 7.093 11.3 11.3 0 0 1-3.523 2.189 4.93 4.93 0 0 1-1.624.307zm1.773-14.7a27.948 27.948 0 0 0-3.26 8.219c-.553 2.915-.022 4.668.75 5.114.8.463 2.742.024 5.1-2.036a27.211 27.211 0 0 0 5.227-6.79 27.602 27.602 0 0 0 3.181-7.776c.654-3.175.089-5.119-.713-5.581a2.327 2.327 0 0 0-1.868.089A10.194 10.194 0 0 0 17.5 6.9a27.464 27.464 0 0 0-5.4 6.849l-.007-.006z" fill="#00D8FF"/><path d="M21.677 28.456c-1.355 0-3.076-.82-4.868-2.361a28.756 28.756 0 0 1-5.747-7.237 28.677 28.677 0 0 1-3.374-8.471 11.376 11.376 0 0 1-.158-4A3.391 3.391 0 0 1 8.964 3.9c1.487-.861 4.01.024 6.585 2.31a28.8 28.8 0 0 1 5.39 6.934 28.383 28.383 0 0 1 3.41 8.287 11.3 11.3 0 0 1 .137 4.146 3.545 3.545 0 0 1-1.494 2.555 2.59 2.59 0 0 1-1.315.324zm-9.58-10.2a27.95 27.95 0 0 0 5.492 6.929c2.249 1.935 4.033 2.351 4.8 1.9.8-.465 1.39-2.363.782-5.434A27.21 27.21 0 0 0 19.9 13.74a27.601 27.601 0 0 0-5.145-6.64c-2.424-2.152-4.39-2.633-5.191-2.169a2.327 2.327 0 0 0-.855 1.662 10.194 10.194 0 0 0 .153 3.565 27.464 27.464 0 0 0 3.236 8.1l-.001-.002z" fill="#00D8FF"/></svg>