<svg width="32" height="32" fill="none" xmlns="http://www.w3.org/2000/svg"><path d="M16 2.667C8.64 2.667 2.667 8.64 2.667 16S8.64 29.333 16 29.333h6.667v-2.666H16c-5.787 0-10.667-4.88-10.667-10.667S10.213 5.333 16 5.333 26.667 10.213 26.667 16v1.907c0 1.053-.947 2.093-2 2.093-1.054 0-2-1.04-2-2.093V16A6.67 6.67 0 0 0 16 9.333 6.67 6.67 0 0 0 9.333 16 6.669 6.669 0 0 0 16 22.667c1.84 0 3.52-.747 4.72-1.96.867 1.186 2.36 1.96 3.947 1.96 2.626 0 4.666-2.134 4.666-4.76V16C29.333 8.64 23.36 2.667 16 2.667zM16 20c-2.213 0-4-1.787-4-4s1.787-4 4-4 4 1.787 4 4-1.787 4-4 4z" fill="#000"/></svg>