<svg width="32" height="32" fill="none" xmlns="http://www.w3.org/2000/svg"><path d="M24.472 7.499C22.139 5.177 19.288 4 16 4c-3.319 0-6.177 1.179-8.497 3.5C5.179 9.821 4 12.683 4 16c0 3.287 1.177 6.137 3.499 8.472C9.82 26.813 12.68 28 16 28c3.29 0 6.14-1.187 8.475-3.524C26.815 22.139 28 19.286 28 16c0-3.317-1.187-6.179-3.528-8.501zM22.589 22.59c-1.516 1.518-3.248 2.384-5.256 2.646v-6.57H20V16h-2.667v-1.867a.8.8 0 0 1 .802-.8H20v-2.666h-1.863c-.989 0-1.814.364-2.476 1.096-.661.729-.994 1.62-.994 2.677V16H12v2.667h2.667v6.573c-2.03-.26-3.768-1.127-5.276-2.645C7.557 20.749 6.667 18.592 6.667 16c0-2.621.889-4.784 2.722-6.613 1.827-1.831 3.99-2.72 6.611-2.72 2.593 0 4.75.89 6.593 2.724 1.844 1.829 2.74 3.992 2.74 6.609 0 2.588-.897 4.745-2.744 6.59z" fill="#000"/></svg>