<svg width="32" height="32" fill="none" xmlns="http://www.w3.org/2000/svg"><path d="M28.688 2H3.312C2.587 2 2 2.587 2 3.312v25.376C2 29.413 2.587 30 3.312 30h25.376c.725 0 1.312-.587 1.312-1.312V3.312C30 2.587 29.413 2 28.688 2z" fill="#3178C6"/><path fill-rule="evenodd" clip-rule="evenodd" d="M18.245 23.759v3.068a6.492 6.492 0 0 0 1.764.575c.708.13 1.426.195 2.146.192a9.97 9.97 0 0 0 2.088-.211 5.11 5.11 0 0 0 1.735-.7 3.542 3.542 0 0 0 1.181-1.266 4.47 4.47 0 0 0 .186-3.394 3.408 3.408 0 0 0-.717-1.117 5.235 5.235 0 0 0-1.123-.877 12.033 12.033 0 0 0-1.477-.734 19.3 19.3 0 0 1-1.08-.484 5.51 5.51 0 0 1-.813-.479 2.09 2.09 0 0 1-.516-.518 1.09 1.09 0 0 1-.181-.618c-.003-.202.054-.4.162-.571a1.4 1.4 0 0 1 .459-.436c.225-.133.47-.228.726-.283a4.21 4.21 0 0 1 .956-.1 6.29 6.29 0 0 1 2.5.535c.263.117.514.258.751.422V13.9a7.505 7.505 0 0 0-1.525-.4 12.414 12.414 0 0 0-1.9-.129 8.761 8.761 0 0 0-2.064.235 5.238 5.238 0 0 0-1.716.733c-.486.324-.888.76-1.171 1.271a3.73 3.73 0 0 0-.431 1.845 3.588 3.588 0 0 0 .789 2.34 6 6 0 0 0 2.395 1.639c.42.173.812.343 1.175.509.328.146.643.319.942.517.241.157.453.355.626.585a1.2 1.2 0 0 1 .23.719 1.1 1.1 0 0 1-.144.552 1.27 1.27 0 0 1-.435.441c-.224.137-.47.235-.726.292-.334.075-.676.11-1.018.105a5.875 5.875 0 0 1-3.774-1.395zm-5.154-7.638h4v-2.527H5.938v2.527H9.92v11.254h3.171V16.121z" fill="#fff"/></svg>