<svg width="32" height="32" fill="none" xmlns="http://www.w3.org/2000/svg"><g clip-path="url(#a)"><path d="M24.797 24.657c0 1.715-3.974 3.098-8.874 3.098-4.899 0-8.873-1.395-8.873-3.098 0-1.715 3.974-3.097 8.873-3.097 4.9 0 8.874 1.382 8.874 3.097z" fill="#9EDCF2"/><path d="M24.797 24.657c0 1.715-3.974 3.098-8.874 3.098-4.899 0-8.873-1.395-8.873-3.098 0-1.715 3.974-3.097 8.873-3.097 4.9 0 8.874 1.382 8.874 3.097z" fill="#7DBCE7"/><path d="m5.792 15.537-.26.889s-.061.32.235.382c.32-.012.296-.308.271-.395l-.246-.876z" fill="#9EDCF2"/><path d="m31.572 11.798.024-.111c-2.604-.518-5.27-.53-6.886-.457.26-.95.346-2.06.346-3.282 0-1.765-.667-3.172-1.728-4.233.185-.605.432-1.95-.247-3.666 0 0-1.21-.382-3.961 1.457a13.84 13.84 0 0 0-3.37-.408c-1.258 0-2.53.16-3.726.482C9.185-.358 7.939.037 7.939.037c-.815 2.036-.309 3.554-.16 3.924-.963 1.037-1.543 2.358-1.543 3.974 0 1.222.136 2.32.481 3.27-1.629-.061-4.196-.037-6.713.47l.024.11c2.518-.505 5.11-.518 6.726-.456.074.197.16.395.247.58-1.604.05-4.332.26-6.948 1l.037.11c2.64-.74 5.393-.937 6.985-.987.963 1.777 2.838 2.938 6.195 3.295-.481.321-.963.864-1.16 1.79-.654.308-2.703 1.073-3.937-1.05 0 0-.69-1.258-2.011-1.357 0 0-1.284-.024-.087.802 0 0 .852.408 1.444 1.926 0 0 .778 2.591 4.492 1.752v2.653s-.074.95-.95 1.26c0 0-.518.357.037.554 0 0 2.407.198 2.407-1.776v-2.913s-.1-1.16.468-1.555v4.788s-.037 1.148-.629 1.58c0 0-.395.703.47.518 0 0 1.653-.234 1.727-2.172l.037-4.85h.395l.037 4.85c.074 1.925 1.727 2.172 1.727 2.172.864.198.47-.518.47-.518-.593-.432-.63-1.58-.63-1.58v-4.75c.568.443.469 1.517.469 1.517v2.913c0 1.974 2.407 1.776 2.407 1.776.555-.197.037-.555.037-.555-.864-.32-.95-1.259-.95-1.259v-3.825c0-1.494-.63-2.283-1.247-2.69 3.579-.358 5.294-1.506 6.084-3.308 1.567.037 4.393.235 7.084 1l.037-.111c-2.678-.753-5.48-.95-7.072-1 .074-.185.136-.37.198-.568 1.653-.061 4.331-.061 6.948.457z" fill="#010101"/><path d="M21.55 7.861c.766.704 1.223 1.543 1.223 2.444 0 4.245-3.16 4.356-7.06 4.356-3.9 0-7.058-.592-7.058-4.356 0-.901.444-1.74 1.209-2.432 1.271-1.16 3.418-.543 5.85-.543 2.43 0 4.566-.629 5.837.531z" fill="#F5CCB3"/><path d="M13.369 10.527c0 1.172-.654 2.11-1.469 2.11-.814 0-1.468-.95-1.468-2.11 0-1.173.654-2.11 1.468-2.11.815-.013 1.469.937 1.469 2.11z" fill="#fff"/><path d="M12.9 10.552c0 .777-.444 1.406-.975 1.406-.543 0-.975-.63-.975-1.406 0-.778.444-1.407.975-1.407.53 0 .975.629.975 1.407z" fill="#AF5C51"/><path d="M21.255 10.527c0 1.172-.654 2.11-1.469 2.11-.814 0-1.468-.95-1.468-2.11 0-1.173.654-2.11 1.468-2.11.802-.013 1.469.937 1.469 2.11z" fill="#fff"/><path d="M20.773 10.552c0 .777-.444 1.406-.974 1.406-.543 0-.976-.63-.976-1.406 0-.778.445-1.407.976-1.407.543 0 .974.629.974 1.407zM16.108 12.403c0 .197-.16.37-.37.37a.371.371 0 0 1-.37-.37c0-.21.16-.37.37-.37.198 0 .37.16.37.37zM14.887 13.328c-.025-.061.012-.123.074-.148.062-.025.123.012.148.074a.664.664 0 0 0 .63.444c.283 0 .53-.185.629-.444.024-.062.086-.099.148-.074.062.025.099.087.074.148a.906.906 0 0 1-.852.605.906.906 0 0 1-.851-.605z" fill="#AF5C51"/><path d="M6.73 15.007c0 .098-.112.172-.26.172-.135 0-.259-.074-.259-.172 0-.1.111-.173.26-.173.147 0 .258.074.258.173zM7.445 15.402c0 .098-.11.172-.259.172-.136 0-.26-.074-.26-.172 0-.1.112-.173.26-.173.148 0 .26.074.26.173zM7.877 15.92c0 .098-.11.173-.259.173-.136 0-.26-.075-.26-.173 0-.099.112-.173.26-.173.148-.012.26.074.26.173zM8.272 16.512c0 .099-.111.173-.26.173-.135 0-.258-.074-.258-.173 0-.099.11-.173.259-.173.148-.012.259.074.259.173zM8.704 17.055c0 .099-.111.173-.26.173-.135 0-.258-.074-.258-.173 0-.099.11-.173.259-.173.148 0 .259.074.259.173zM9.296 17.536c0 .1-.11.173-.259.173-.136 0-.259-.074-.259-.173 0-.098.111-.172.26-.172.147-.013.258.074.258.172zM10.123 17.845c0 .099-.11.173-.259.173-.136 0-.26-.074-.26-.173 0-.099.112-.173.26-.173.148 0 .26.074.26.173zM10.95 17.845c0 .099-.111.173-.26.173-.135 0-.258-.074-.258-.173 0-.099.11-.173.259-.173.148 0 .259.074.259.173zM11.79 17.71c0 .098-.112.172-.26.172-.136 0-.26-.074-.26-.173 0-.099.112-.173.26-.173.136 0 .26.074.26.173z" fill="#C4E5D9"/></g><defs><clipPath id="a"><path fill="#fff" d="M0 0h31.6v32H0z"/></clipPath></defs></svg>