<svg width="32" height="32" fill="none" xmlns="http://www.w3.org/2000/svg"><path d="M5.902 27.201 3.655 2h24.69l-2.25 25.197L15.985 30 5.902 27.201z" fill="#E44F26"/><path d="m16 27.858 8.17-2.265 1.922-21.532H16v23.797z" fill="#F1662A"/><path d="M16 13.407h-4.09l-.282-3.165H16V7.151H8.25l.074.83.759 8.517H16v-3.091zM16 21.434l-.014.004-3.442-.93-.22-2.464H9.221l.433 4.852 6.332 1.758.014-.004v-3.216z" fill="#EBEBEB"/><path d="M15.989 13.407v3.091h3.806l-.358 4.009-3.448.93v3.216l6.337-1.757.046-.522.726-8.137.076-.83h-7.185zM15.989 7.151v3.091h7.466l.062-.694.141-1.567.074-.83h-7.743z" fill="#fff"/></svg>