<svg width="32" height="32" fill="none" xmlns="http://www.w3.org/2000/svg"><path d="M13.377 20.4h-2.133v-6.932h2.133V20.4zm-1.066-7.821c-.77 0-1.155-.356-1.155-1.067a.987.987 0 0 1 .333-.756c.223-.207.518-.319.822-.31.769 0 1.154.357 1.154 1.067 0 .711-.384 1.066-1.154 1.066zm8.978 7.821h-2.177v-3.867c0-1.006-.357-1.51-1.068-1.51-.563 0-.932.281-1.112.844-.057.089-.088.268-.088.533v4h-2.177v-4.71c0-1.067-.016-1.807-.044-2.222h1.866l.134.932c.489-.741 1.2-1.11 2.177-1.11.743 0 1.341.258 1.8.777.461.518.69 1.266.69 2.245V20.4zM16 28C9.383 28 4 22.617 4 16S9.383 4 16 4s12 5.383 12 12-5.383 12-12 12zm0-21.333c-5.145 0-9.333 4.188-9.333 9.333 0 5.145 4.188 9.333 9.333 9.333 5.145 0 9.333-4.188 9.333-9.333 0-5.145-4.188-9.333-9.333-9.333z" fill="#000"/></svg>