<svg width="32" height="32" fill="none" xmlns="http://www.w3.org/2000/svg"><path fill-rule="evenodd" clip-rule="evenodd" d="M16 3.828c-6.892 0-12.48 5.588-12.48 12.48 0 5.515 3.575 10.192 8.535 11.842.624.115.852-.27.852-.6 0-.297-.011-1.08-.017-2.123-3.471.754-4.204-1.674-4.204-1.674-.568-1.441-1.386-1.825-1.386-1.825-1.133-.774.086-.758.086-.758 1.253.088 1.912 1.285 1.912 1.285 1.113 1.908 2.921 1.356 3.632 1.038.113-.808.436-1.357.792-1.67-2.77-.314-5.684-1.385-5.684-6.167 0-1.363.486-2.477 1.284-3.35-.127-.314-.557-1.583.123-3.302 0 0 1.047-.335 3.432 1.28a11.87 11.87 0 0 1 3.124-.42 11.9 11.9 0 0 1 3.124.42c2.384-1.615 3.43-1.28 3.43-1.28.68 1.72.252 2.988.124 3.302.8.873 1.282 1.987 1.282 3.35 0 4.793-2.917 5.85-5.697 6.157.447.386.846 1.149.846 2.313 0 1.668-.015 3.014-.015 3.423 0 .334.225.723.858.6 4.954-1.654 8.527-6.328 8.527-11.84 0-6.893-5.588-12.48-12.48-12.48z" fill="#000"/></svg>