<svg width="32" height="32" viewBox="0 0 32 32" fill="none" xmlns="http://www.w3.org/2000/svg">
<path d="M13.3773 20.4H11.244V13.468H13.3773V20.4ZM12.3107 12.5787C11.5413 12.5787 11.156 12.2227 11.156 11.512C11.1536 11.3694 11.1822 11.2279 11.2397 11.0974C11.2973 10.9669 11.3824 10.8504 11.4893 10.756C11.7117 10.5486 12.0067 10.437 12.3107 10.4453C13.08 10.4453 13.4653 10.8027 13.4653 11.5133C13.4653 12.224 13.0813 12.5787 12.3107 12.5787ZM21.2893 20.4H19.112V16.5333C19.112 15.5267 18.7547 15.0227 18.044 15.0227C17.4813 15.0227 17.112 15.304 16.932 15.8667C16.8747 15.956 16.844 16.1347 16.844 16.4V20.4H14.6667V15.6893C14.6667 14.6227 14.6507 13.8827 14.6227 13.468H16.4893L16.6227 14.4C17.112 13.6587 17.8227 13.2893 18.8 13.2893C19.5427 13.2893 20.1413 13.548 20.6 14.0667C21.0613 14.5853 21.2907 15.3333 21.2907 16.312V20.4H21.2893ZM16 28C9.38267 28 4 22.6173 4 16C4 9.38267 9.38267 4 16 4C22.6173 4 28 9.38267 28 16C28 22.6173 22.6173 28 16 28ZM16 6.66667C10.8547 6.66667 6.66667 10.8547 6.66667 16C6.66667 21.1453 10.8547 25.3333 16 25.3333C21.1453 25.3333 25.3333 21.1453 25.3333 16C25.3333 10.8547 21.1453 6.66667 16 6.66667Z" fill="#000"/>
</svg>
