<svg width="32" height="32" viewBox="0 0 32 32" fill="none" xmlns="http://www.w3.org/2000/svg">
<path fill-rule="evenodd" clip-rule="evenodd" d="M15.9994 3.82812C9.10752 3.82812 3.52 9.41596 3.52 16.3088C3.52 21.8227 7.09504 26.5004 12.0547 28.1497C12.6794 28.2652 12.9066 27.8809 12.9066 27.5491C12.9066 27.2534 12.8957 26.4691 12.8902 25.4265C9.41856 26.1814 8.68608 23.7532 8.68608 23.7532C8.1184 22.3116 7.30016 21.9283 7.30016 21.9283C6.16704 21.1545 7.38624 21.1696 7.38624 21.1696C8.63872 21.2582 9.29792 22.4553 9.29792 22.4553C10.4109 24.3625 12.2192 23.8105 12.9299 23.4931C13.0429 22.6851 13.3661 22.1363 13.7222 21.8236C10.9514 21.5088 8.03808 20.438 8.03808 15.656C8.03808 14.2931 8.52416 13.1788 9.32224 12.3062C9.19456 11.992 8.76544 10.7232 9.4448 9.00412C9.4448 9.00412 10.4925 8.66876 12.8771 10.2844C13.872 10.0064 14.9398 9.86749 16.0013 9.86333C17.0611 9.86781 18.1293 10.0064 19.1254 10.2844C21.5085 8.66876 22.5546 9.00412 22.5546 9.00412C23.2355 10.7232 22.8067 11.992 22.6787 12.3062C23.4787 13.1788 23.9613 14.2931 23.9613 15.656C23.9613 20.4492 21.0438 21.5052 18.2637 21.8131C18.711 22.1987 19.1104 22.9619 19.1104 24.1264C19.1104 25.7939 19.0954 27.1395 19.0954 27.5488C19.0954 27.8832 19.3197 28.272 19.9533 28.1481C24.9075 26.4953 28.48 21.8211 28.48 16.3088C28.48 9.41596 22.8925 3.82812 15.9994 3.82812Z" fill="#000"/>
</svg>
