<svg width="32" height="32" viewBox="0 0 32 32" fill="none" xmlns="http://www.w3.org/2000/svg">
<path d="M16.54 12.663H19.4V15.587H20.846C21.5223 15.5839 22.1936 15.4715 22.834 15.254C23.1703 15.1427 23.4941 14.9966 23.8 14.818C23.4086 14.2762 23.1766 13.6358 23.13 12.969C23.0097 11.996 23.2595 11.0134 23.83 10.216L24.13 9.86802L24.488 10.156C25.4373 10.8521 26.0806 11.8884 26.283 13.048C27.3868 12.709 28.5798 12.8201 29.602 13.357L29.995 13.583L29.788 13.983C29.3693 14.688 28.7507 15.2527 28.0106 15.6058C27.2706 15.9588 26.4424 16.0842 25.631 15.966C23.151 22.134 17.76 25.054 11.222 25.054C7.84402 25.054 4.74602 23.791 2.98102 20.795L2.95202 20.746L2.70002 20.227C2.11877 18.9053 1.89166 17.4551 2.04102 16.019L2.08102 15.586H4.52602V12.663H7.38702V9.80002H13.108V6.94202H16.54V12.663Z" fill="#0096E6"/>
<path d="M12.006 24.567C10.6068 23.9708 9.48505 22.8673 8.86601 21.478C8.12639 21.6759 7.36706 21.791 6.60201 21.821C6.26868 21.8397 5.92035 21.849 5.55701 21.849C5.13568 21.849 4.69201 21.8367 4.22601 21.812C5.12578 22.7488 6.21664 23.481 7.42448 23.9588C8.63233 24.4366 9.92887 24.6488 11.226 24.581C11.4873 24.581 11.7473 24.5764 12.006 24.567V24.567Z" fill="white"/>
<path d="M7.08 13.346H7.28V15.413H7.08V13.346ZM6.704 13.346H6.904V15.413H6.7V13.346H6.704ZM6.328 13.346H6.528V15.413H6.328V13.346ZM5.952 13.346H6.152V15.413H5.952V13.346ZM5.576 13.346H5.776V15.413H5.576V13.346ZM5.208 13.346H5.408V15.413H5.208V13.346ZM5 13.14H7.482V15.619H5V13.14ZM7.859 10.279H10.339V12.758H7.863L7.859 10.279ZM9.936 10.486H10.136V12.552H9.936V10.486ZM9.56 10.486H9.76V12.552H9.56V10.486ZM9.184 10.486H9.384V12.552H9.184V10.486ZM8.808 10.486H9.008V12.552H8.808V10.486ZM8.432 10.486H8.632V12.552H8.432V10.486ZM8.064 10.486H8.264V12.552H8.064V10.486ZM7.857 13.139H10.337V15.619H7.863V13.14L7.857 13.139ZM9.934 13.346H10.134V15.413H9.934V13.346ZM9.558 13.346H9.758V15.413H9.558V13.346ZM9.182 13.346H9.382V15.413H9.182V13.346ZM8.806 13.346H9.006V15.413H8.806V13.346ZM8.43 13.346H8.63V15.413H8.43V13.346ZM8.062 13.346H8.262V15.413H8.062V13.346ZM10.716 13.139H13.2V15.619H10.72V13.14L10.716 13.139ZM12.792 13.346H13V15.413H12.8L12.792 13.346ZM12.416 13.346H12.616V15.413H12.416V13.346ZM12.04 13.346H12.24V15.413H12.04V13.346ZM11.664 13.346H11.864V15.413H11.664V13.346ZM11.288 13.346H11.488V15.413H11.288V13.346ZM10.92 13.346H11.12V15.413H10.92V13.346ZM10.714 10.279H13.2V12.758H10.72V10.279H10.714ZM12.79 10.486H13V12.552H12.8L12.79 10.486ZM12.414 10.486H12.614V12.552H12.414V10.486ZM12.038 10.486H12.238V12.552H12.038V10.486ZM11.662 10.486H11.862V12.552H11.662V10.486ZM11.286 10.486H11.486V12.552H11.286V10.486ZM10.918 10.486H11.118V12.552H10.918V10.486ZM13.572 13.139H16.051V15.619H13.571V13.14L13.572 13.139ZM15.648 13.346H15.848V15.413H15.648V13.346ZM15.272 13.346H15.472V15.413H15.272V13.346ZM14.896 13.346H15.096V15.413H14.896V13.346ZM14.52 13.346H14.72V15.413H14.52V13.346ZM14.144 13.346H14.344V15.413H14.144V13.346ZM13.776 13.346H13.968V15.413H13.768V13.346H13.776ZM13.57 10.279H16.049V12.758H13.569V10.279H13.57ZM15.646 10.486H15.846V12.552H15.646V10.486ZM15.27 10.486H15.47V12.552H15.27V10.486ZM14.894 10.486H15.094V12.552H14.894V10.486ZM14.518 10.486H14.718V12.552H14.518V10.486ZM14.142 10.486H14.342V12.552H14.142V10.486ZM13.774 10.486H13.966V12.552H13.766V10.486H13.774ZM13.568 7.41901H16.047V9.90001H13.567V7.41901H13.568ZM15.644 7.62501H15.844V9.69101H15.644V7.62501ZM15.268 7.62501H15.468V9.69101H15.268V7.62501ZM14.892 7.62501H15.092V9.69101H14.892V7.62501ZM14.516 7.62501H14.716V9.69101H14.516V7.62501ZM14.14 7.62501H14.34V9.69101H14.14V7.62501ZM13.772 7.62501H13.964V9.69101H13.764V7.62501H13.772ZM16.426 13.139H18.905V15.619H16.425V13.14L16.426 13.139ZM18.502 13.346H18.697V15.413H18.497V13.346H18.502ZM18.126 13.346H18.332V15.413H18.126V13.346ZM17.75 13.346H17.95V15.413H17.75V13.346ZM17.374 13.346H17.574V15.413H17.374V13.346ZM16.998 13.346H17.198V15.413H16.993V13.346H16.998ZM16.63 13.346H16.83V15.413H16.636V13.346H16.63Z" fill="white"/>
<path d="M10.188 19.638C10.3233 19.638 10.4556 19.6781 10.568 19.7533C10.6805 19.8284 10.7682 19.9353 10.82 20.0602C10.8717 20.1852 10.8853 20.3228 10.8589 20.4554C10.8325 20.5881 10.7673 20.71 10.6717 20.8057C10.576 20.9013 10.4542 20.9665 10.3215 20.9929C10.1888 21.0192 10.0513 21.0057 9.92627 20.9539C9.80129 20.9022 9.69446 20.8145 9.6193 20.702C9.54414 20.5895 9.50403 20.4573 9.50403 20.322C9.50403 20.1406 9.57609 19.9666 9.70437 19.8383C9.83264 19.7101 10.0066 19.638 10.188 19.638ZM10.188 19.832C10.2486 19.832 10.3086 19.8431 10.365 19.865C10.3382 19.8803 10.3152 19.9017 10.298 19.9274C10.2808 19.9531 10.2698 19.9825 10.2658 20.0132C10.2619 20.0439 10.2651 20.0751 10.2753 20.1043C10.2854 20.1335 10.3022 20.16 10.3244 20.1817C10.3465 20.2033 10.3733 20.2195 10.4028 20.229C10.4322 20.2385 10.4635 20.2411 10.4941 20.2364C10.5247 20.2318 10.5538 20.2202 10.5791 20.2024C10.6044 20.1846 10.6253 20.1612 10.64 20.134C10.6808 20.231 10.6893 20.3385 10.6643 20.4406C10.6393 20.5428 10.582 20.6342 10.501 20.7013C10.42 20.7684 10.3196 20.8077 10.2146 20.8133C10.1096 20.8189 10.0055 20.7906 9.91781 20.7325C9.83012 20.6745 9.76344 20.5897 9.72763 20.4908C9.69183 20.3919 9.68879 20.2841 9.71898 20.1834C9.74917 20.0826 9.81098 19.9942 9.89526 19.9313C9.97955 19.8684 10.0818 19.8343 10.187 19.834L10.188 19.832Z" fill="white"/>
</svg>
