<svg width="32" height="32" viewBox="0 0 32 32" fill="none" xmlns="http://www.w3.org/2000/svg">
<path d="M16 2.66675C8.64 2.66675 2.66667 8.64008 2.66667 16.0001C2.66667 23.3601 8.64 29.3334 16 29.3334H22.6667V26.6667H16C10.2133 26.6667 5.33333 21.7867 5.33333 16.0001C5.33333 10.2134 10.2133 5.33341 16 5.33341C21.7867 5.33341 26.6667 10.2134 26.6667 16.0001V17.9067C26.6667 18.9601 25.72 20.0001 24.6667 20.0001C23.6133 20.0001 22.6667 18.9601 22.6667 17.9067V16.0001C22.6667 12.3201 19.68 9.33342 16 9.33342C12.32 9.33342 9.33333 12.3201 9.33333 16.0001C9.33333 19.6801 12.32 22.6667 16 22.6667C17.84 22.6667 19.52 21.9201 20.72 20.7067C21.5867 21.8934 23.08 22.6667 24.6667 22.6667C27.2933 22.6667 29.3333 20.5334 29.3333 17.9067V16.0001C29.3333 8.64008 23.36 2.66675 16 2.66675ZM16 20.0001C13.7867 20.0001 12 18.2134 12 16.0001C12 13.7867 13.7867 12.0001 16 12.0001C18.2133 12.0001 20 13.7867 20 16.0001C20 18.2134 18.2133 20.0001 16 20.0001Z" fill="#000"/>
</svg>
