<svg width="32" height="32" viewBox="0 0 32 32" fill="none" xmlns="http://www.w3.org/2000/svg">
<g clip-path="url(#clip0)">
<path d="M24.7965 24.6571C24.7965 26.3725 20.8228 27.7547 15.9234 27.7547C11.0241 27.7547 7.05029 26.3602 7.05029 24.6571C7.05029 22.9418 11.0241 21.5596 15.9234 21.5596C20.8228 21.5596 24.7965 22.9418 24.7965 24.6571Z" fill="#9EDCF2"/>
<path d="M24.7965 24.6571C24.7965 26.3725 20.8228 27.7547 15.9234 27.7547C11.0241 27.7547 7.05029 26.3602 7.05029 24.6571C7.05029 22.9418 11.0241 21.5596 15.9234 21.5596C20.8228 21.5596 24.7965 22.9418 24.7965 24.6571Z" fill="#7DBCE7"/>
<path d="M5.79154 15.5372L5.53238 16.4258C5.53238 16.4258 5.47067 16.7466 5.76685 16.8083C6.08772 16.796 6.06304 16.4998 6.03835 16.4134L5.79154 15.5372Z" fill="#9EDCF2"/>
<path d="M31.5717 11.7979L31.5964 11.6869C28.9924 11.1685 26.3268 11.1562 24.7101 11.2302C24.9693 10.28 25.0557 9.1693 25.0557 7.94755C25.0557 6.1828 24.3893 4.77594 23.3279 3.71462C23.5131 3.10991 23.7599 1.76475 23.0811 0.0493658C23.0811 0.0493658 21.8717 -0.333203 19.1197 1.50559C18.046 1.23409 16.8983 1.09834 15.7506 1.09834C14.4918 1.09834 13.2207 1.25878 12.0237 1.57964C9.18524 -0.357884 7.93881 0.0370249 7.93881 0.0370249C7.12431 2.07328 7.63029 3.59121 7.77838 3.96144C6.81579 4.99807 6.23576 6.31855 6.23576 7.93521C6.23576 9.15696 6.37152 10.2553 6.71706 11.2056C5.08806 11.1439 2.52115 11.1685 0.00360107 11.6745L0.0282829 11.7856C2.54583 11.2796 5.13742 11.2673 6.75408 11.329C6.82813 11.5264 6.91452 11.7239 7.0009 11.909C5.39658 11.9584 2.66924 12.1681 0.0529647 12.9086L0.0899875 13.0197C2.73094 12.2792 5.48297 12.0818 7.07495 12.0324C8.03754 13.8095 9.91336 14.9695 13.2701 15.3274C12.7888 15.6483 12.3075 16.1913 12.11 17.1169C11.456 17.4254 9.40738 18.1905 8.17329 16.0679C8.17329 16.0679 7.4822 14.8091 6.16172 14.7104C6.16172 14.7104 4.87826 14.6857 6.07533 15.5125C6.07533 15.5125 6.92686 15.9198 7.51922 17.4377C7.51922 17.4377 8.2967 20.0293 12.0113 19.1901V21.8434C12.0113 21.8434 11.9373 22.7937 11.0611 23.1022C11.0611 23.1022 10.5427 23.4601 11.0981 23.6575C11.0981 23.6575 13.5046 23.855 13.5046 21.8805V18.968C13.5046 18.968 13.4058 17.8079 13.9735 17.413V22.2013C13.9735 22.2013 13.9365 23.349 13.3441 23.781C13.3441 23.781 12.9492 24.4844 13.8131 24.2993C13.8131 24.2993 15.4668 24.0648 15.5408 22.1273L15.5778 17.2773H15.9727L16.0098 22.1273C16.0838 24.0525 17.7375 24.2993 17.7375 24.2993C18.6014 24.4967 18.2065 23.781 18.2065 23.781C17.6141 23.349 17.5771 22.2013 17.5771 22.2013V17.4501C18.1448 17.8943 18.046 18.968 18.046 18.968V21.8805C18.046 23.855 20.4525 23.6575 20.4525 23.6575C21.0078 23.4601 20.4895 23.1022 20.4895 23.1022C19.6257 22.7813 19.5393 21.8434 19.5393 21.8434V18.0177C19.5393 16.5245 18.9099 15.7347 18.2928 15.3274C21.8717 14.9695 23.5871 13.8218 24.3769 12.0201C25.9442 12.0571 28.7703 12.2545 31.4606 13.0197L31.4976 12.9086C28.8196 12.1558 26.0183 11.9584 24.4263 11.909C24.5003 11.7239 24.562 11.5388 24.6237 11.3413C26.2774 11.2796 28.9554 11.2796 31.5717 11.7979V11.7979Z" fill="#010101"/>
<path d="M21.5509 7.86115C22.316 8.56458 22.7726 9.40376 22.7726 10.3046C22.7726 14.5499 19.6133 14.661 15.7136 14.661C11.8139 14.661 8.6546 14.0686 8.6546 10.3046C8.6546 9.40376 9.09888 8.56458 9.86401 7.87349C11.1351 6.71344 13.2824 7.33049 15.7136 7.33049C18.1448 7.33049 20.2797 6.7011 21.5509 7.86115V7.86115Z" fill="#F5CCB3"/>
<path d="M13.3688 10.5268C13.3688 11.6992 12.7148 12.6371 11.9003 12.6371C11.0858 12.6371 10.4317 11.6868 10.4317 10.5268C10.4317 9.35441 11.0858 8.4165 11.9003 8.4165C12.7148 8.40416 13.3688 9.35441 13.3688 10.5268V10.5268Z" fill="white"/>
<path d="M12.8999 10.5515C12.8999 11.3289 12.4556 11.9583 11.9249 11.9583C11.3819 11.9583 10.95 11.3289 10.95 10.5515C10.95 9.77398 11.3943 9.14459 11.9249 9.14459C12.4556 9.14459 12.8999 9.77398 12.8999 10.5515Z" fill="#AF5C51"/>
<path d="M21.2547 10.5268C21.2547 11.6992 20.6006 12.6371 19.7861 12.6371C18.9716 12.6371 18.3176 11.6868 18.3176 10.5268C18.3176 9.35441 18.9716 8.4165 19.7861 8.4165C20.5883 8.40416 21.2547 9.35441 21.2547 10.5268V10.5268Z" fill="white"/>
<path d="M20.7734 10.5515C20.7734 11.3289 20.3291 11.9583 19.7985 11.9583C19.2555 11.9583 18.8235 11.3289 18.8235 10.5515C18.8235 9.77398 19.2678 9.14459 19.7985 9.14459C20.3415 9.14459 20.7734 9.77398 20.7734 10.5515Z" fill="#AF5C51"/>
<path d="M16.1085 12.4026C16.1085 12.6001 15.9481 12.7729 15.7383 12.7729C15.5408 12.7729 15.368 12.6124 15.368 12.4026C15.368 12.1928 15.5285 12.0324 15.7383 12.0324C15.9357 12.0324 16.1085 12.1928 16.1085 12.4026Z" fill="#AF5C51"/>
<path d="M14.8868 13.3282C14.8621 13.2665 14.8991 13.2048 14.9608 13.1801C15.0225 13.1554 15.0842 13.1924 15.1089 13.2541C15.2076 13.5256 15.4544 13.6984 15.7383 13.6984C16.0221 13.6984 16.2689 13.5133 16.3677 13.2541C16.3924 13.1924 16.4541 13.1554 16.5158 13.1801C16.5775 13.2048 16.6145 13.2665 16.5898 13.3282C16.4664 13.6861 16.1209 13.9329 15.7383 13.9329C15.3557 13.9329 15.0102 13.6861 14.8868 13.3282V13.3282Z" fill="#AF5C51"/>
<path d="M6.72944 15.0066C6.72944 15.1053 6.61837 15.1793 6.47028 15.1793C6.33453 15.1793 6.21112 15.1053 6.21112 15.0066C6.21112 14.9078 6.32219 14.8338 6.47028 14.8338C6.61837 14.8338 6.72944 14.9078 6.72944 15.0066Z" fill="#C4E5D9"/>
<path d="M7.4452 15.4015C7.4452 15.5002 7.33413 15.5742 7.18604 15.5742C7.05029 15.5742 6.92688 15.5002 6.92688 15.4015C6.92688 15.3027 7.03795 15.2287 7.18604 15.2287C7.33413 15.2287 7.4452 15.3027 7.4452 15.4015Z" fill="#C4E5D9"/>
<path d="M7.87714 15.9198C7.87714 16.0185 7.76608 16.0926 7.61799 16.0926C7.48224 16.0926 7.35883 16.0185 7.35883 15.9198C7.35883 15.8211 7.46989 15.747 7.61799 15.747C7.76608 15.7347 7.87714 15.8211 7.87714 15.9198Z" fill="#C4E5D9"/>
<path d="M8.27204 16.5121C8.27204 16.6109 8.16097 16.6849 8.01288 16.6849C7.87713 16.6849 7.75372 16.6109 7.75372 16.5121C7.75372 16.4134 7.86479 16.3394 8.01288 16.3394C8.16097 16.327 8.27204 16.4134 8.27204 16.5121Z" fill="#C4E5D9"/>
<path d="M8.70399 17.0552C8.70399 17.1539 8.59292 17.2279 8.44483 17.2279C8.30908 17.2279 8.18567 17.1539 8.18567 17.0552C8.18567 16.9564 8.29674 16.8824 8.44483 16.8824C8.59292 16.8824 8.70399 16.9564 8.70399 17.0552Z" fill="#C4E5D9"/>
<path d="M9.29633 17.5364C9.29633 17.6352 9.18527 17.7092 9.03717 17.7092C8.90142 17.7092 8.77802 17.6352 8.77802 17.5364C8.77802 17.4377 8.88908 17.3637 9.03717 17.3637C9.18527 17.3513 9.29633 17.4377 9.29633 17.5364Z" fill="#C4E5D9"/>
<path d="M10.1232 17.845C10.1232 17.9437 10.0121 18.0177 9.86402 18.0177C9.72827 18.0177 9.60486 17.9437 9.60486 17.845C9.60486 17.7462 9.71593 17.6722 9.86402 17.6722C10.0121 17.6722 10.1232 17.7462 10.1232 17.845Z" fill="#C4E5D9"/>
<path d="M10.95 17.845C10.95 17.9437 10.839 18.0177 10.6909 18.0177C10.5551 18.0177 10.4317 17.9437 10.4317 17.845C10.4317 17.7462 10.5428 17.6722 10.6909 17.6722C10.839 17.6722 10.95 17.7462 10.95 17.845Z" fill="#C4E5D9"/>
<path d="M11.7892 17.7092C11.7892 17.8079 11.6781 17.882 11.53 17.882C11.3943 17.882 11.2709 17.8079 11.2709 17.7092C11.2709 17.6105 11.3819 17.5364 11.53 17.5364C11.6658 17.5364 11.7892 17.6105 11.7892 17.7092Z" fill="#C4E5D9"/>
</g>
<defs>
<clipPath id="clip0">
<rect width="31.6" height="32" fill="white"/>
</clipPath>
</defs>
</svg>
