<svg width="32" height="32" viewBox="0 0 32 32" fill="none" xmlns="http://www.w3.org/2000/svg">
<path d="M24.472 7.49867C22.1387 5.17733 19.288 4 16 4C12.6813 4 9.82267 5.17867 7.50267 7.5C5.17867 9.82133 4 12.6827 4 16C4 19.2867 5.17733 22.1373 7.49867 24.472C9.82 26.8133 12.68 28 16 28C19.2893 28 22.14 26.8133 24.4747 24.476C26.8147 22.1387 28 19.2867 28 16C28 12.6827 26.8133 9.82133 24.472 7.49867ZM22.5893 22.5907C21.0733 24.1093 19.3413 24.9747 17.3333 25.2373V18.6667H20V16H17.3333V14.1333C17.3333 14.0282 17.3541 13.924 17.3944 13.8269C17.4346 13.7297 17.4937 13.6415 17.5681 13.5672C17.6425 13.4929 17.7309 13.434 17.8281 13.3938C17.9253 13.3537 18.0295 13.3332 18.1347 13.3333H20V10.6667H18.1373C17.148 10.6667 16.3227 11.0307 15.6613 11.7627C15 12.492 14.6667 13.3827 14.6667 14.44V16H12V18.6667H14.6667V25.24C12.6373 24.98 10.8987 24.1133 9.39067 22.5947C7.55733 20.7493 6.66667 18.592 6.66667 16C6.66667 13.3787 7.556 11.216 9.38933 9.38667C11.216 7.556 13.3787 6.66667 16 6.66667C18.5933 6.66667 20.7493 7.55733 22.5933 9.39067C24.4373 11.22 25.3333 13.3827 25.3333 16C25.3333 18.588 24.436 20.7453 22.5893 22.5907Z" fill="#000"/>
</svg>
